<?xml version="1.0" standalone="no"?>
<!DOCTYPE svg PUBLIC "-//W3C//DTD SVG 20010904//EN"
 "http://www.w3.org/TR/2001/REC-SVG-20010904/DTD/svg10.dtd">
<svg version="1.0" xmlns="http://www.w3.org/2000/svg"
 width="648.000000pt" height="648.000000pt" viewBox="0 0 648.000000 648.000000"
 preserveAspectRatio="xMidYMid meet">
<metadata>
Created by potrace 1.11, written by Peter Selinger 2001-2013
</metadata>
<g transform="translate(0.000000,648.000000) scale(0.100000,-0.100000)"
fill="#000000" stroke="none">
<path d="M4183 5514 c-3 -7 -3 -19 0 -26 3 -7 6 -2 7 12 1 23 2 23 11 7 6 -10
9 -21 6 -24 -3 -2 2 -13 11 -22 10 -10 22 -26 28 -36 6 -10 15 -15 22 -11 15
9 3 38 -14 32 -17 -7 -18 6 -2 22 9 9 8 12 -6 12 -14 0 -17 6 -14 23 3 17 -1
22 -20 23 -13 1 -26 -4 -29 -12z"/>
<path d="M4140 5434 c0 -3 7 -12 15 -20 16 -17 18 -14 9 10 -6 15 -24 23 -24
10z"/>
<path d="M4290 5416 c0 -9 5 -16 10 -16 6 0 10 4 10 9 0 6 -4 13 -10 16 -5 3
-10 -1 -10 -9z"/>
<path d="M4330 5423 c0 -3 7 -15 17 -25 9 -10 13 -21 9 -25 -4 -4 -10 -3 -14
3 -4 6 -13 3 -24 -8 -10 -10 -13 -18 -7 -18 6 0 8 -7 5 -16 -5 -14 -4 -15 9
-4 9 7 13 20 10 28 -4 12 -3 13 10 2 8 -7 13 -16 10 -20 -2 -4 2 -16 10 -26
16 -22 20 -70 6 -79 -6 -3 -4 -20 5 -41 8 -20 13 -39 10 -42 -3 -3 -1 -11 5
-19 9 -9 8 -17 0 -27 -9 -11 -9 -15 1 -19 10 -4 11 -7 1 -18 -15 -15 -17 -65
-3 -74 5 -3 7 -12 3 -20 -3 -8 -1 -15 4 -15 14 0 83 -103 83 -124 0 -9 7 -19
15 -22 8 -4 12 -10 9 -15 -3 -5 -1 -9 4 -9 5 0 9 -6 10 -12 0 -7 3 -31 6 -53
3 -22 3 -35 -2 -30 -4 6 -16 15 -27 21 -11 6 -21 16 -21 23 -1 6 -2 15 -3 21
0 5 -8 7 -17 3 -14 -5 -15 -1 -9 25 4 21 3 32 -4 32 -6 0 -11 -7 -11 -15 0
-21 -8 -19 -52 11 -22 15 -35 31 -31 38 4 7 1 7 -8 -1 -17 -14 -60 -6 -71 13
-5 7 -17 10 -30 6 -13 -3 -19 -1 -15 5 4 6 0 13 -8 17 -8 3 -15 1 -15 -5 0 -6
-4 -7 -10 -4 -5 3 -10 1 -10 -5 0 -7 -5 -8 -12 -3 -7 4 -22 8 -33 9 -44 2
-105 16 -105 25 0 5 -12 9 -26 9 -14 0 -23 4 -20 8 7 12 -39 9 -55 -4 -17 -13
-79 -10 -107 5 -18 10 -20 9 -17 -9 2 -11 1 -19 -3 -19 -20 3 -32 -3 -32 -15
0 -8 -4 -18 -10 -21 -14 -8 -1 26 18 48 24 27 8 20 -25 -12 -17 -15 -38 -33
-47 -38 -10 -5 -19 -18 -20 -29 -2 -11 -22 -29 -49 -42 -30 -16 -44 -29 -40
-38 3 -9 -2 -14 -16 -14 -20 0 -33 -8 -93 -60 -25 -21 -30 -34 -34 -85 -2 -33
-8 -96 -13 -140 -4 -44 -4 -93 0 -110 20 -73 41 -184 44 -235 2 -30 5 -55 6
-55 8 0 10 -87 4 -160 -2 -33 -5 -64 -5 -70 1 -11 9 -139 12 -165 0 -8 6 -19
12 -23 8 -6 8 -10 -1 -13 -18 -8 -4 -34 19 -34 10 0 16 -5 13 -10 -3 -6 1 -17
9 -26 18 -17 22 -49 6 -39 -6 4 -8 11 -5 16 4 5 -3 9 -15 9 -19 0 -20 -1 -6
-16 9 -8 16 -23 16 -32 0 -9 7 -26 16 -37 12 -16 16 -17 23 -6 5 8 11 9 15 3
8 -13 -3 -42 -15 -42 -13 0 -11 -21 5 -52 10 -19 11 -27 3 -25 -7 1 -11 -4 -9
-12 5 -22 -30 -101 -44 -101 -7 0 -16 -9 -19 -20 -3 -11 -11 -20 -16 -20 -5 0
-9 -4 -9 -10 0 -16 -82 -120 -96 -120 -7 0 -16 -9 -19 -20 -3 -11 -9 -21 -13
-21 -40 -7 -68 -7 -77 0 -15 12 -108 11 -122 -1 -9 -7 -13 -6 -13 3 0 12 -2
12 -9 0 -6 -9 -11 -10 -15 -2 -4 6 -4 16 0 23 4 7 3 8 -4 4 -6 -4 -26 6 -44
23 -64 57 -81 70 -97 75 -64 17 -123 27 -129 22 -10 -10 23 -61 37 -58 7 1 9
-2 6 -8 -13 -21 -12 -57 2 -57 9 0 11 8 8 21 -5 19 -5 19 5 4 6 -10 20 -18 32
-18 13 0 18 -5 15 -13 -5 -14 -3 -15 46 -20 16 -2 32 -9 36 -16 6 -10 10 -9
14 2 6 16 34 17 45 1 4 -5 17 -9 29 -8 18 1 20 -2 13 -21 -4 -12 -5 -28 0 -35
6 -10 9 -8 13 6 4 16 5 17 6 2 0 -10 6 -18 12 -18 6 0 9 -7 5 -15 -3 -8 0 -14
6 -12 7 1 18 -10 25 -25 8 -16 20 -28 26 -28 7 0 24 -11 39 -24 14 -14 29 -22
32 -19 3 4 6 -2 7 -13 0 -18 1 -18 9 1 8 17 9 15 7 -10 -2 -26 -6 -30 -27 -27
-14 2 -49 4 -77 5 -29 0 -53 6 -53 12 0 5 -4 4 -9 -4 -6 -9 -27 -14 -60 -14
-28 0 -51 -4 -51 -10 0 -5 -8 -3 -17 4 -14 12 -15 12 -9 0 7 -10 3 -12 -13 -6
-12 3 -21 2 -21 -4 0 -5 8 -12 18 -14 16 -4 16 -5 -1 -6 -10 0 -30 7 -44 17
-15 9 -24 12 -20 6 4 -8 -6 -13 -31 -16 -20 -3 -38 -1 -40 4 -6 14 -22 9 -22
-8 0 -8 -4 -13 -9 -10 -5 4 -20 2 -34 -3 -18 -7 -29 -5 -42 7 -11 11 -15 12
-10 3 6 -11 3 -13 -13 -9 -12 4 -25 2 -28 -4 -3 -5 -18 -7 -33 -4 -19 5 -22 4
-11 -3 11 -8 -7 -9 -57 -6 -69 4 -74 2 -93 -22 -14 -18 -17 -30 -10 -37 5 -5
10 -18 10 -28 0 -10 3 -17 8 -16 33 7 92 -38 84 -65 -1 -5 6 -6 17 -2 16 5 19
2 16 -14 -2 -13 1 -21 10 -21 8 0 19 -9 25 -20 6 -11 15 -18 21 -15 5 4 9 -5
9 -19 0 -31 37 -56 51 -35 11 18 11 11 0 -29 -6 -20 -6 -30 0 -27 5 4 9 13 9
22 0 12 3 13 14 4 10 -8 16 -9 21 -1 11 18 26 0 19 -23 -3 -12 -3 -19 1 -15 5
4 14 3 22 -4 11 -9 13 -8 11 1 -2 7 7 17 20 22 13 5 21 5 19 1 -6 -9 19 -33
27 -25 3 4 6 1 6 -6 0 -7 5 -9 10 -6 6 4 7 11 4 17 -5 7 -2 8 5 4 7 -5 10 -10
7 -13 -2 -3 3 -13 11 -23 15 -17 16 -17 35 2 10 10 23 16 28 13 6 -4 10 -1 10
5 0 6 8 4 17 -6 11 -11 18 -13 21 -5 8 25 20 9 16 -24 -2 -25 1 -35 12 -35 8
0 14 -10 14 -22 l0 -23 18 22 c14 19 20 20 34 9 10 -7 15 -16 11 -19 -3 -4
-12 -2 -18 3 -9 8 -14 6 -19 -5 -3 -8 -5 -18 -5 -21 1 -14 -26 -22 -34 -11 -6
8 -7 8 -4 -3 2 -8 18 -16 35 -18 39 -4 46 -38 10 -45 -21 -4 -21 -4 2 -6 21
-1 26 -6 28 -33 3 -40 12 -51 12 -15 0 22 6 27 35 33 46 8 65 0 64 -28 -2 -23
-2 -23 -6 -1 -3 13 -11 21 -22 20 -13 -1 -17 -9 -16 -31 2 -17 -2 -36 -7 -43
-5 -7 -7 -27 -2 -45 6 -29 8 -30 15 -13 6 17 8 17 8 3 1 -10 6 -18 11 -18 6 0
10 -5 10 -11 0 -6 -6 -9 -14 -6 -13 5 -30 -16 -21 -25 3 -3 157 -2 270 2 6 0
4 4 -2 8 -9 6 -8 12 6 24 13 11 22 13 29 6 6 -6 12 -6 16 1 9 13 36 3 36 -14
0 -7 9 -23 19 -36 19 -23 20 -23 39 -5 12 10 25 15 31 12 5 -4 17 4 26 16 13
20 17 21 25 8 8 -13 10 -13 10 1 0 21 30 48 30 28 1 -10 5 -8 15 5 8 10 20 16
28 13 9 -3 36 18 70 54 31 32 53 59 49 59 -4 0 1 5 11 11 9 5 17 17 17 24 0 8
3 15 8 15 7 0 31 62 36 93 1 10 7 22 12 25 12 8 12 81 0 100 -5 8 -17 12 -27
9 -25 -7 -26 28 -1 42 16 10 16 10 0 11 -10 0 -18 5 -18 11 0 5 5 7 12 3 8 -5
9 -2 5 9 -3 10 -2 17 4 17 6 0 10 12 8 28 -2 28 26 102 39 102 10 0 32 51 26
61 -3 5 2 9 10 9 9 0 16 9 16 20 0 11 6 20 14 20 8 0 16 6 19 13 3 9 9 9 26
-1 18 -11 21 -10 21 7 0 10 8 22 17 25 15 6 15 8 3 16 -11 7 -11 10 -2 10 7 0
12 8 10 18 -2 10 3 17 12 17 8 0 20 4 27 8 8 5 15 -1 19 -16 7 -28 -14 -214
-26 -238 -5 -8 -14 -45 -20 -82 -7 -37 -16 -67 -22 -67 -5 0 -7 -4 -3 -9 3 -5
-1 -25 -9 -43 -8 -18 -21 -49 -29 -68 -9 -19 -18 -48 -22 -65 -4 -16 -16 -50
-28 -75 -11 -25 -26 -61 -33 -80 -7 -19 -18 -34 -25 -32 -7 2 -9 -4 -5 -14 9
-23 -11 -43 -35 -37 -16 5 -20 12 -17 34 3 16 1 29 -4 29 -4 0 -8 -6 -8 -14 0
-8 -4 -16 -8 -18 -11 -4 -53 -97 -55 -121 -1 -11 -11 -24 -23 -29 -15 -7 -26
-26 -33 -54 -8 -29 -17 -44 -27 -44 -14 0 -14 -3 -4 -15 11 -14 10 -14 -14 -5
-15 5 -25 6 -22 1 3 -4 -6 -13 -20 -20 -14 -6 -22 -16 -19 -21 3 -6 1 -10 -5
-10 -8 0 -10 10 -6 28 6 25 5 26 -8 9 -14 -18 -14 -18 -19 0 -4 14 -5 14 -6
-4 0 -13 4 -23 9 -23 6 0 10 -5 10 -12 0 -9 -3 -9 -12 0 -7 7 -21 12 -32 11
-15 0 -17 -2 -6 -6 16 -6 30 -23 30 -35 0 -4 -7 -5 -15 -2 -10 4 -13 2 -10 -8
4 -11 -5 -14 -37 -14 -28 0 -42 -4 -41 -12 2 -6 -3 -9 -11 -6 -8 3 -16 -4 -20
-19 -3 -14 -13 -28 -22 -31 -12 -5 -15 -2 -10 11 4 9 1 20 -5 24 -13 7 -39
-12 -39 -29 0 -12 -29 -24 -40 -17 -5 3 -11 1 -15 -5 -3 -5 -1 -10 4 -10 6 0
11 -16 11 -35 0 -19 -4 -35 -8 -35 -5 0 -7 14 -4 30 5 32 -9 39 -30 16 -11
-12 -15 -9 -29 16 -13 25 -17 28 -22 14 -5 -11 -3 -15 5 -10 7 4 8 3 4 -4 -4
-6 -13 -9 -21 -5 -8 3 -15 0 -15 -6 0 -6 7 -11 15 -11 8 0 15 -8 15 -17 0 -14
2 -15 9 -4 5 7 11 9 13 5 3 -5 -3 -17 -13 -26 -17 -16 -20 -16 -34 -2 -14 15
-15 14 -11 -9 3 -19 -2 -30 -19 -41 -35 -23 -59 -21 -52 4 8 31 -6 24 -22 -11
-7 -16 -16 -28 -19 -25 -2 3 1 12 8 21 8 9 8 15 2 15 -6 0 -12 12 -14 27 -3
28 -4 28 -9 -4 -3 -19 -2 -30 4 -26 6 3 7 1 3 -6 -6 -9 -11 -9 -22 -1 -7 7
-19 10 -26 7 -8 -3 -6 -6 5 -6 14 -1 15 -4 5 -14 -10 -12 -15 -12 -26 0 -7 7
-18 13 -23 13 -6 0 -3 -8 6 -17 16 -16 16 -17 -1 -30 -16 -12 -20 -11 -26 4
-3 10 -7 14 -7 8 -1 -5 -5 -4 -10 4 -7 11 -13 12 -23 4 -19 -15 -58 -23 -58
-11 0 5 -4 6 -10 3 -5 -3 -10 1 -10 10 0 9 -5 13 -11 9 -6 -3 -9 -14 -6 -23 3
-12 -2 -17 -19 -17 -22 0 -22 1 -8 31 l15 30 -20 -25 c-16 -20 -21 -21 -21 -8
0 9 -4 20 -10 23 -6 4 -7 -1 -3 -10 3 -10 1 -20 -4 -24 -5 -3 -15 -15 -22 -26
-9 -15 -11 -16 -7 -2 3 9 1 17 -4 17 -6 0 -10 8 -10 18 0 14 -2 14 -9 3 -7
-11 -10 -9 -14 10 l-4 24 -2 -25 c0 -15 5 -32 12 -40 10 -12 9 -12 -5 -1 -10
7 -18 20 -18 28 0 8 -4 12 -9 8 -5 -3 -12 9 -14 27 l-4 33 -1 -32 c-1 -18 -6
-33 -11 -33 -5 0 -7 10 -4 22 4 19 3 20 -6 8 -10 -13 -13 -13 -22 3 -6 9 -14
15 -20 12 -12 -8 -12 18 1 31 7 7 1 9 -19 8 -22 -1 -28 2 -24 13 5 12 7 12 14
1 5 -7 9 -8 9 -2 0 22 -14 24 -36 3 -16 -15 -24 -17 -29 -8 -5 7 -4 10 3 5 6
-3 4 7 -4 24 -10 18 -23 30 -35 30 -11 0 -17 -5 -14 -10 4 -6 10 -8 15 -5 5 3
12 0 16 -6 4 -8 3 -9 -4 -5 -7 4 -12 1 -12 -6 0 -8 -5 -6 -11 5 -5 9 -15 17
-21 17 -40 0 165 -144 285 -200 46 -21 95 -41 108 -44 50 -12 86 -17 139 -23
30 -3 57 -9 60 -13 3 -4 29 -7 58 -5 28 1 52 -2 52 -8 0 -5 -11 -7 -24 -5 -15
3 -27 -2 -35 -14 -6 -10 -20 -18 -32 -18 -11 0 -17 -5 -14 -10 3 -5 17 -10 31
-10 17 0 24 -5 24 -20 0 -11 5 -20 10 -20 6 0 10 5 10 10 0 6 5 10 11 10 8 0
7 -5 -1 -15 -7 -9 -21 -13 -31 -10 -22 7 -25 -8 -5 -24 15 -12 19 -71 6 -71
-4 0 -10 -8 -14 -17 -3 -10 -8 -23 -11 -29 -8 -16 79 -36 122 -28 33 6 35 5
28 -15 -3 -11 -8 -33 -10 -48 -4 -27 -4 -27 7 -6 12 25 34 32 24 8 -7 -18 20
-21 28 -2 8 16 0 -23 -9 -45 -5 -13 -2 -15 14 -11 13 3 21 1 21 -6 0 -7 8 -11
18 -10 30 3 43 -1 37 -10 -3 -5 -1 -12 4 -15 14 -9 11 -74 -5 -120 -8 -22 -29
-52 -47 -68 -30 -25 -30 -27 -10 -28 16 0 21 -5 17 -15 -4 -8 -9 -13 -13 -11
-4 3 -16 -9 -26 -25 -11 -16 -23 -29 -27 -29 -5 0 -8 -4 -8 -9 0 -11 70 -2 86
11 7 5 14 3 17 -5 3 -8 15 -17 27 -20 12 -3 20 -4 17 -1 -2 3 7 17 22 33 28
30 33 39 82 149 18 39 37 72 42 72 4 0 6 8 3 18 -4 13 10 41 43 86 27 36 51
61 53 54 3 -7 -1 -19 -9 -26 -16 -17 -17 -42 0 -42 6 0 29 4 49 9 28 7 38 5
42 -5 3 -8 2 -13 -2 -13 -22 4 -32 -3 -32 -22 0 -13 5 -19 13 -16 7 3 12 -5
13 -22 0 -14 4 -35 9 -45 6 -15 5 -17 -5 -11 -10 6 -12 4 -7 -8 3 -8 -1 -21
-8 -27 -8 -7 -14 -15 -13 -18 1 -4 -9 -29 -21 -55 -13 -27 -21 -51 -18 -53 3
-3 22 31 42 75 21 44 49 90 62 103 l25 23 -15 -37 c-30 -73 -2 -36 41 53 24
50 46 88 49 86 3 -3 -7 -38 -21 -79 -26 -74 -40 -136 -29 -124 3 3 20 50 38
103 17 54 39 113 49 131 9 18 14 38 10 44 -4 7 -3 8 4 4 14 -8 46 53 63 118 6
25 16 49 21 52 16 10 -1 -50 -33 -121 -26 -57 -69 -194 -69 -219 0 -27 21 18
45 99 15 50 37 115 50 145 13 30 29 74 35 97 13 52 35 71 25 22 -4 -19 -13
-56 -21 -84 -8 -27 -34 -122 -58 -210 -56 -203 -103 -356 -161 -520 -89 -253
-97 -277 -91 -282 7 -8 14 10 112 295 76 222 102 307 211 692 19 69 41 135 49
147 8 12 14 50 15 85 2 103 14 125 22 39 4 -46 2 -82 -5 -94 -6 -11 -19 -63
-30 -116 -37 -180 -223 -787 -304 -993 -12 -32 -19 -58 -14 -58 26 0 268 753
338 1055 17 72 33 175 36 230 9 150 17 215 26 215 15 0 -1 -332 -20 -425 -38
-180 -172 -623 -285 -941 -40 -112 -49 -151 -29 -131 10 10 149 429 229 692
113 372 125 435 135 710 4 127 5 237 3 245 -3 8 1 6 9 -5 21 -32 24 -380 3
-492 -34 -185 -174 -668 -294 -1011 -27 -79 -44 -141 -38 -139 13 4 79 198
188 552 170 553 178 590 179 876 l2 204 -35 105 c-20 58 -34 107 -31 109 7 7
54 -108 75 -187 19 -68 20 -92 14 -236 -8 -195 -33 -356 -90 -581 -44 -173
-152 -529 -223 -733 -21 -62 -34 -111 -29 -109 30 10 271 809 316 1047 28 148
28 150 30 116 1 -40 -35 -249 -65 -376 -41 -167 -96 -354 -186 -628 -27 -84
-47 -156 -44 -159 9 -10 11 -6 64 157 104 319 194 660 226 850 19 114 20 52 1
-78 -27 -192 -119 -547 -211 -817 -37 -108 -39 -119 -24 -110 31 19 195 617
249 905 l10 55 -5 -73 c-7 -123 -70 -406 -140 -637 -82 -271 -79 -262 -66
-250 34 33 160 505 215 805 3 14 3 -3 0 -38 -9 -142 -50 -338 -125 -597 -55
-190 -53 -182 -40 -170 7 6 36 96 66 200 51 180 68 253 100 440 22 125 18 46
-5 -110 -19 -136 -67 -344 -107 -472 -11 -35 -16 -63 -12 -63 21 0 130 430
130 512 0 16 4 27 8 24 19 -12 -37 -319 -94 -513 -3 -13 -2 -23 3 -23 16 0 92
312 93 378 0 17 4 32 8 32 16 0 -37 -327 -63 -393 -4 -9 -3 -17 3 -17 9 0 19
36 61 230 9 40 10 37 5 -25 -3 -38 -12 -99 -19 -135 -13 -60 -13 -81 0 -68 5
5 30 140 38 208 6 45 -1 -88 -8 -160 -4 -39 -3 -49 4 -35 5 11 10 35 10 53 1
17 5 32 9 32 5 0 6 -22 2 -50 -4 -27 -3 -50 1 -50 10 0 23 182 16 231 -3 22
-1 37 4 33 6 -3 8 78 5 203 -3 131 -1 182 4 138 10 -92 11 -497 1 -557 -9 -53
3 -67 14 -17 4 17 7 142 8 278 1 175 3 221 8 161 9 -113 9 -352 0 -417 l-7
-53 43 0 c50 0 50 -3 28 119 -8 47 -13 86 -11 88 4 4 21 -58 39 -141 6 -33 17
-61 23 -63 8 -3 6 23 -6 79 -10 46 -27 130 -39 188 -12 58 -25 113 -27 123 -3
9 -1 17 4 17 5 0 13 -19 17 -42 5 -24 9 -45 9 -48 1 -3 19 -76 40 -163 21 -86
43 -157 48 -157 6 0 8 6 5 14 -5 11 -80 340 -92 396 -17 86 -35 196 -39 245
-5 58 -5 59 5 15 5 -25 17 -81 25 -125 8 -44 30 -143 49 -220 18 -77 41 -176
50 -220 18 -83 34 -126 35 -92 0 9 -18 95 -40 190 -57 239 -79 341 -90 417 -6
36 -13 79 -16 95 -4 17 -4 27 0 24 3 -3 18 -61 32 -130 42 -198 130 -561 145
-594 17 -37 -2 77 -33 195 -60 235 -80 319 -109 460 -16 80 -29 147 -29 150 1
13 29 -47 30 -62 0 -28 69 -313 115 -480 24 -86 49 -183 56 -217 6 -34 15 -61
20 -61 11 0 4 39 -33 175 -45 170 -115 451 -134 545 -13 62 -25 94 -46 118
-30 35 -36 48 -16 36 8 -5 9 -2 5 10 -6 15 -5 15 18 -1 24 -18 32 -33 17 -33
-4 0 -14 6 -22 12 -7 7 -2 -2 13 -20 31 -38 44 -82 121 -392 85 -343 111 -438
120 -447 11 -11 -2 55 -35 172 -27 98 -92 362 -124 500 -8 39 -18 79 -21 90
-6 18 -4 18 9 5 9 -8 34 -82 55 -165 56 -212 142 -562 142 -579 0 -8 5 -18 11
-22 14 -8 13 -2 -68 326 -108 442 -108 441 -182 497 -9 6 -13 15 -9 19 4 4 22
-4 40 -18 55 -41 66 -42 18 -1 -68 58 -110 100 -110 111 0 6 16 -4 35 -21 19
-16 68 -51 108 -76 41 -25 93 -61 117 -79 24 -17 47 -32 52 -32 15 0 -86 77
-150 115 -63 37 -152 111 -152 127 0 6 15 -1 33 -14 17 -14 66 -44 106 -67 41
-23 81 -50 87 -60 12 -16 80 -58 227 -141 32 -17 65 -43 74 -57 9 -14 29 -84
45 -157 46 -216 112 -482 115 -466 2 8 -26 140 -62 294 -66 284 -72 312 -55
286 5 -8 12 -11 16 -7 13 12 -48 67 -121 110 -145 84 -201 120 -235 152 -19
18 -74 55 -121 83 -81 48 -117 77 -108 86 2 2 33 -13 69 -34 36 -20 83 -47
105 -60 l40 -23 -30 26 c-16 15 -54 41 -84 59 -29 18 -70 47 -90 64 -20 17
-49 36 -66 43 l-30 11 29 -5 c37 -8 200 -105 307 -185 46 -35 103 -71 125 -81
49 -22 162 -102 186 -133 25 -30 22 -43 -4 -18 -13 11 -84 57 -158 102 -74 45
-145 91 -158 103 -14 13 -21 16 -17 7 6 -17 100 -82 180 -125 86 -47 135 -85
172 -136 23 -29 40 -44 44 -37 5 7 19 1 43 -17 58 -44 49 -25 -10 22 -29 23
-51 36 -48 28 9 -23 -4 -18 -17 6 -9 17 -8 20 2 14 9 -6 11 -3 6 8 -4 11 14 2
46 -22 28 -22 87 -55 130 -75 43 -19 92 -45 109 -57 20 -15 29 -17 26 -8 -5
14 -41 34 -161 89 -70 32 -157 105 -157 131 1 11 3 11 13 -2 23 -30 96 -76
174 -109 43 -19 94 -48 114 -66 32 -28 91 -56 169 -79 50 -15 11 6 -55 30 -37
14 -84 40 -104 58 -20 18 -68 46 -106 61 -77 31 -168 88 -190 119 -23 33 -11
31 43 -7 52 -38 160 -91 168 -83 3 2 -13 12 -34 20 -62 25 -162 92 -222 150
-30 28 -46 42 -36 30 10 -12 15 -26 12 -31 -6 -11 18 -35 26 -27 3 3 11 -1 18
-10 10 -12 10 -15 0 -15 -8 0 -10 -9 -5 -27 l6 -28 -33 31 c-34 31 -104 78
-193 129 -27 16 -81 52 -120 80 -38 28 -104 74 -145 102 -75 51 -122 93 -103
93 6 0 16 -7 24 -16 7 -8 30 -24 50 -35 21 -10 100 -61 176 -112 157 -106 163
-110 163 -103 0 3 -44 35 -97 70 -126 84 -263 183 -306 222 -18 17 -40 34 -48
37 -10 4 -11 6 -1 6 7 1 28 -10 45 -22 51 -38 107 -69 107 -60 0 4 -18 21 -40
36 -22 15 -39 31 -39 35 1 4 0 9 -1 12 -1 3 -3 13 -5 22 -4 22 20 13 133 -48
45 -25 82 -43 82 -41 0 4 -132 84 -185 111 -17 9 -23 16 -14 16 9 0 43 -14 75
-31 40 -20 51 -23 34 -10 -14 12 -49 33 -77 47 -29 15 -53 27 -53 28 0 2 15 1
33 0 17 -2 24 -1 15 2 -10 3 -18 10 -18 15 0 5 8 9 18 9 15 0 15 2 2 11 -11 8
-9 9 10 4 14 -4 34 -15 45 -25 20 -18 103 -50 130 -50 8 0 15 -4 15 -9 0 -5
26 -19 58 -32 31 -13 68 -29 82 -36 32 -16 43 -16 38 0 -3 6 -11 12 -19 12 -9
0 -16 15 -20 43 -4 32 -2 42 9 42 9 0 12 -6 8 -16 -3 -8 -2 -13 3 -10 15 9 11
66 -5 66 -8 0 -14 2 -14 5 0 9 34 45 43 45 5 0 15 6 22 14 12 12 11 15 -5 19
-12 3 -18 1 -14 -5 4 -6 1 -8 -7 -6 -8 3 -13 12 -13 20 1 12 -5 14 -35 7 -47
-11 -51 -11 -51 1 0 6 7 10 16 10 8 0 13 4 10 9 -4 5 4 7 16 3 21 -5 20 -2 -7
24 -16 16 -31 26 -33 22 -9 -19 -29 6 -25 30 4 21 2 24 -6 12 -14 -20 -22 -9
-32 46 -6 32 -5 51 2 61 9 10 8 13 -5 13 -19 0 -21 11 -4 28 9 9 9 12 0 12 -7
0 -12 4 -12 10 0 5 8 6 18 3 15 -6 15 -5 3 10 -11 14 -11 20 0 34 13 15 12 15
-8 2 -18 -11 -25 -11 -35 -1 -9 9 -8 12 5 12 20 0 24 46 5 52 -7 3 -11 18 -10
36 2 23 -2 32 -13 32 -8 0 -15 4 -15 10 0 5 7 7 15 4 10 -4 15 0 15 15 0 14
-6 21 -20 21 -11 0 -20 5 -20 10 0 6 7 10 15 10 20 0 16 50 -5 50 -9 1 -6 5 9
14 19 11 21 14 7 19 -20 8 -20 21 -1 40 8 8 12 17 10 19 -14 13 -13 87 1 116
17 36 11 69 -15 89 -15 11 -15 12 0 13 18 0 33 49 23 75 -4 8 -2 15 4 15 5 0
12 7 15 14 4 10 1 13 -7 10 -8 -3 -17 -1 -21 5 -3 6 1 14 10 17 9 4 14 13 11
21 -3 8 -1 11 4 8 6 -3 13 0 16 9 3 8 12 12 19 10 7 -3 16 0 20 6 4 7 -2 14
-14 17 -12 3 -21 10 -21 15 0 15 27 38 44 38 21 0 20 10 -1 26 -17 13 -17 13
0 14 9 0 17 5 17 10 0 6 9 10 20 10 11 0 20 4 20 10 0 15 -24 64 -35 72 -5 4
0 8 13 8 21 0 27 9 23 38 -2 8 5 29 14 48 9 19 13 39 10 44 -3 5 -7 42 -9 82
-4 77 -12 108 -28 108 -5 0 -8 13 -6 29 1 16 -4 36 -11 45 -7 9 -11 25 -8 36
3 12 1 18 -5 14 -7 -5 -9 2 -4 20 4 16 2 26 -4 26 -7 0 -7 6 0 20 6 11 7 20 3
19 -27 -5 -35 1 -23 16 10 12 10 15 -4 15 -10 0 -16 9 -16 24 0 13 -4 26 -9
28 -5 2 -11 19 -14 38 -2 19 -9 34 -15 33 -31 -7 -25 163 8 226 22 45 40 128
40 189 0 83 -56 142 -135 142 -44 0 -55 23 -55 119 0 37 -4 125 -9 197 -6 71
-12 203 -15 294 -6 161 -16 255 -37 334 -15 57 -87 206 -100 206 -5 0 -7 5 -4
10 3 6 -1 10 -9 10 -9 0 -16 -6 -17 -12 0 -7 -5 -1 -11 15 -5 15 -15 27 -22
27 -7 0 -21 24 -31 54 -12 36 -25 56 -38 60 -10 2 -16 9 -13 15 4 5 -3 15 -15
21 -17 10 -20 18 -16 46 5 31 4 33 -9 19 -17 -17 -28 -20 -19 -6 6 11 -15 61
-27 61 -4 0 -8 -3 -8 -7z m-177 -870 c34 -11 45 -18 35 -24 -11 -7 -10 -9 1
-9 8 0 12 -2 10 -4 -2 -2 -45 4 -96 14 -50 10 -112 16 -138 14 -38 -2 -44 0
-35 11 23 28 135 26 223 -2z m12 -59 c30 -15 54 -29 52 -30 -1 -2 -33 8 -70
21 -37 14 -83 25 -102 25 -20 0 -35 5 -35 11 0 19 94 3 155 -27z m-77 -10 c4
-5 19 -15 35 -21 15 -7 27 -19 27 -28 0 -18 -16 -20 -23 -2 -4 9 -7 9 -15 -1
-14 -20 -252 -37 -252 -18 0 6 -6 4 -13 -5 -8 -10 -19 -14 -31 -9 -18 6 -18 7
-2 13 9 4 14 11 11 17 -3 6 1 7 9 4 11 -4 16 0 16 10 0 14 11 19 36 15 4 0 10
3 13 9 16 23 50 32 114 29 38 -1 71 -7 75 -13z m-108 -164 c0 -5 -2 -10 -4
-10 -3 0 -8 5 -11 10 -3 6 -1 10 4 10 6 0 11 -4 11 -10z m-120 -35 c0 -19 -5
-25 -23 -25 -13 0 -32 7 -43 16 -15 12 -15 15 -2 10 9 -2 19 2 22 10 3 8 15
14 26 14 15 0 20 -7 20 -25z m-234 -20 c4 -8 10 -13 14 -10 5 3 11 1 15 -5 3
-5 15 -10 26 -10 30 0 22 -17 -11 -22 -30 -5 -68 21 -53 35 3 4 1 7 -5 7 -7 0
-12 5 -12 10 0 16 20 12 26 -5z m268 -46 c-4 -7 1 -7 16 1 33 18 52 6 40 -25
-5 -13 -7 -30 -5 -37 6 -17 -64 -50 -83 -39 -11 6 -8 10 12 15 14 3 26 13 26
21 0 8 6 12 14 9 7 -3 16 1 19 9 4 11 -1 14 -17 13 -13 -2 -31 3 -41 10 -19
14 -12 34 11 34 9 0 12 -5 8 -11z m78 -31 c-7 -7 -10 -5 -7 8 5 29 6 30 12 16
3 -8 1 -18 -5 -24z m-82 -17 c0 -18 -30 -33 -55 -27 -24 6 -27 26 -4 26 6 0 7
-4 4 -10 -3 -5 1 -10 9 -10 9 0 16 7 16 15 0 8 7 15 15 15 8 0 15 -4 15 -9z
m90 -45 c0 -2 -7 -6 -15 -10 -8 -3 -15 -1 -15 4 0 6 7 10 15 10 8 0 15 -2 15
-4z m528 -111 c0 -14 -8 -25 -19 -28 -20 -5 -27 -29 -7 -24 13 2 22 -79 11
-103 -8 -20 -4 -62 9 -77 6 -7 6 -24 0 -47 -8 -27 -7 -38 4 -47 18 -15 18 -29
-1 -29 -9 0 -15 -9 -15 -25 0 -15 6 -25 14 -25 18 0 11 -64 -10 -95 -8 -11
-14 -33 -15 -50 -1 -29 -1 -29 -8 -5 l-7 25 -9 -25 c-4 -14 -9 -48 -10 -76 -1
-28 -10 -67 -20 -88 -18 -38 -35 -55 -35 -36 0 6 -5 8 -11 5 -6 -4 -7 -19 -4
-35 7 -33 -2 -38 -85 -41 -49 -2 -55 -1 -52 17 3 15 1 16 -9 7 -10 -10 -16 -8
-31 9 -10 12 -18 29 -18 40 0 10 -3 17 -7 17 -5 -1 -17 -1 -28 1 -18 1 -18 2
-2 8 14 6 11 11 -18 26 -19 11 -35 23 -35 27 0 4 -10 5 -22 1 -13 -3 -19 -1
-15 5 4 6 1 16 -7 22 -8 7 -12 21 -8 33 4 15 2 19 -7 13 -16 -9 -73 50 -69 72
2 9 -3 18 -11 21 -10 3 -12 0 -8 -12 5 -12 0 -16 -19 -16 -21 0 -47 13 -92 46
-12 8 -29 80 -22 88 5 5 5 17 0 27 -11 19 2 35 19 25 5 -4 11 -1 13 6 6 17
-18 82 -31 86 -17 6 -14 52 4 52 8 0 15 6 15 14 0 9 -8 12 -27 8 -26 -5 -27
-4 -13 12 12 16 12 19 -3 27 -9 6 -17 18 -17 29 0 10 -5 20 -11 22 -5 2 -15
23 -20 48 -6 24 -15 48 -22 52 -17 11 0 22 20 13 10 -5 22 -7 27 -6 5 1 6 -5
2 -14 -4 -13 -2 -14 14 -5 16 8 18 8 14 -4 -3 -9 6 -20 27 -30 42 -21 49 -20
49 4 0 11 5 20 11 20 6 0 8 -9 4 -20 -8 -24 10 -27 32 -4 12 11 26 14 51 9 23
-4 32 -3 27 4 -4 8 2 8 19 1 38 -14 232 -12 218 2 -21 21 -13 24 56 22 37 -1
77 2 90 7 14 5 22 5 22 -2 0 -5 11 -2 24 8 13 10 22 21 20 25 -2 3 11 1 30 -4
25 -8 34 -16 34 -33z m-688 15 c0 -5 -7 -7 -15 -4 -8 4 -15 8 -15 10 0 2 7 4
15 4 8 0 15 -4 15 -10z m-60 -615 c0 -8 4 -15 9 -15 5 0 11 -9 14 -20 3 -11 1
-20 -4 -20 -5 0 0 -9 11 -20 29 -29 16 -44 -21 -25 -26 14 -34 26 -30 48 0 4
-3 7 -8 7 -10 0 -22 40 -15 52 9 14 44 9 44 -7z m-150 -31 c0 -8 -4 -12 -10
-9 -5 3 -10 10 -10 16 0 5 5 9 10 9 6 0 10 -7 10 -16z m580 -333 c18 -20 37
-52 62 -103 17 -34 17 -39 1 -75 -9 -21 -16 -43 -15 -48 1 -6 -7 -16 -18 -23
-18 -11 -20 -10 -20 13 0 14 -8 29 -20 35 -11 6 -20 15 -20 20 0 12 22 9 32
-5 5 -6 8 -3 8 7 0 9 -4 20 -10 23 -19 12 -10 26 11 20 16 -5 20 -3 17 6 -3 8
-18 14 -34 14 -32 -1 -50 15 -31 27 9 6 8 11 -5 18 -13 8 -15 19 -11 46 4 25
2 39 -8 45 -9 6 -4 7 16 3 17 -4 37 -14 45 -23z m170 -51 c0 -5 -9 -10 -21
-10 -11 0 -17 5 -14 10 3 6 13 10 21 10 8 0 14 -4 14 -10z m13 -32 c2 -7 3
-26 1 -41 -2 -20 1 -27 9 -24 20 7 25 -137 6 -159 -6 -7 -8 -18 -4 -24 3 -5 0
-12 -7 -15 -8 -3 -14 -24 -15 -56 -1 -51 -12 -76 -21 -50 -3 9 -9 4 -18 -15
l-13 -29 7 35 c4 19 7 107 7 195 0 98 3 163 10 167 6 5 5 8 -2 8 -7 0 -13 5
-13 10 0 15 47 12 53 -2z m-260 -25 c-3 -7 -6 -13 -8 -13 -2 0 -5 6 -8 13 -3
8 1 14 8 14 7 0 11 -6 8 -14z m55 -128 c-3 -3 -9 2 -12 12 -6 14 -5 15 5 6 7
-7 10 -15 7 -18z m5 -69 c15 -12 15 -15 2 -26 -8 -6 -20 -10 -27 -7 -8 4 -7 6
5 6 9 1 17 6 17 12 0 5 -4 7 -10 4 -5 -3 -10 -1 -10 5 0 6 -4 8 -10 5 -5 -3
-10 -1 -10 4 0 15 21 13 43 -3z m-1279 -136 l43 -40 7 31 c5 29 9 31 36 25 17
-3 47 -18 66 -32 l35 -27 30 33 c27 29 34 32 70 27 44 -6 113 -52 103 -69 -4
-7 -2 -8 4 -4 8 5 10 -2 6 -23 -3 -16 -1 -37 5 -48 9 -15 11 -13 12 17 1 19 1
41 0 49 -2 7 2 10 8 6 6 -3 11 -2 11 3 0 15 65 42 100 42 45 0 70 -33 69 -90
-2 -86 -29 -130 -86 -137 -21 -3 -42 -9 -47 -14 -6 -5 -20 -9 -33 -9 -18 0
-23 6 -23 24 0 31 -16 42 -23 16 -4 -14 -14 -20 -35 -20 -17 0 -34 -4 -37 -10
-10 -16 -45 -12 -45 5 0 20 -27 19 -38 -1 -7 -12 -19 -14 -60 -8 -47 6 -50 8
-35 23 15 15 15 16 -2 20 -10 1 -22 -4 -27 -12 -7 -14 -13 -14 -53 0 -37 12
-45 19 -40 34 6 16 3 17 -24 8 -42 -15 -85 13 -76 48 3 15 2 22 -4 19 -29 -19
-71 39 -71 98 0 42 15 54 39 32 23 -21 31 -20 31 4 0 33 36 24 84 -20z m716
-60 c6 -12 9 -29 5 -39 -9 -30 -69 -91 -81 -83 -21 13 -7 82 22 113 33 34 40
35 54 9z m81 -17 c-12 -20 -14 -14 -5 12 4 9 9 14 11 11 3 -2 0 -13 -6 -23z
m856 -45 c-3 -8 -6 -5 -6 6 -1 11 2 17 5 13 3 -3 4 -12 1 -19z m-1792 -77 c-8
-14 -25 -14 -25 0 0 5 5 7 10 4 6 -3 10 -1 10 6 0 7 3 10 6 6 3 -3 3 -10 -1
-16z m1760 9 c3 -5 1 -10 -4 -10 -6 0 -11 5 -11 10 0 6 2 10 4 10 3 0 8 -4 11
-10z m-5 -50 c0 -5 -5 -10 -11 -10 -5 0 -7 5 -4 10 3 6 8 10 11 10 2 0 4 -4 4
-10z m-1087 -37 c-7 -2 -19 -2 -25 0 -7 3 -2 5 12 5 14 0 19 -2 13 -5z m1094
1 c-3 -3 -12 -4 -19 -1 -8 3 -5 6 6 6 11 1 17 -2 13 -5z m-1517 -35 c0 -6 -4
-7 -10 -4 -5 3 -10 11 -10 16 0 6 5 7 10 4 6 -3 10 -11 10 -16z m557 -11 c-3
-7 -5 -2 -5 12 0 14 2 19 5 13 2 -7 2 -19 0 -25z m-427 -18 c0 -11 -4 -20 -9
-20 -5 0 -7 9 -4 20 3 11 7 20 9 20 2 0 4 -9 4 -20z m1330 -28 c0 -7 7 -20 15
-28 22 -23 19 -37 -6 -24 -24 13 -41 4 -19 -10 17 -10 13 -15 -17 -24 -15 -5
-23 -3 -23 4 0 6 -4 8 -10 5 -11 -7 -13 6 -4 29 3 9 14 16 24 16 10 0 21 7 24
16 9 23 8 24 -11 18 -14 -5 -15 -4 -4 4 8 6 11 18 7 28 -6 18 -5 17 9 0 8 -11
15 -26 15 -34z m-1290 23 c0 -8 -4 -15 -10 -15 -5 0 -7 7 -4 15 4 8 8 15 10
15 2 0 4 -7 4 -15z m1650 -35 c0 -5 -4 -10 -10 -10 -5 0 -10 5 -10 10 0 6 5
10 10 10 6 0 10 -4 10 -10z m-440 -48 c0 -4 -4 -12 -10 -18 -6 -6 -6 -23 1
-48 8 -28 13 -35 19 -25 5 7 12 11 15 7 4 -3 -2 -15 -12 -25 -11 -11 -22 -27
-26 -36 -3 -9 -11 -17 -16 -17 -17 0 -22 19 -11 39 7 13 7 22 0 26 -5 3 -10
16 -9 28 1 20 2 19 12 -5 6 -16 14 -28 19 -28 11 0 10 18 -2 25 -13 8 -13 65
1 65 5 0 7 5 4 10 -3 6 -1 10 4 10 6 0 11 -4 11 -8z m9 -49 c0 -25 -1 -26 -9
-8 -12 27 -12 35 0 35 6 0 10 -12 9 -27z m-1069 7 c0 -5 -12 -10 -27 -10 -22
0 -25 2 -13 10 20 13 40 13 40 0z m1160 -10 c0 -5 -10 -10 -22 -9 -22 0 -22 1
-3 9 11 5 21 9 23 9 1 1 2 -3 2 -9z m346 -45 c-8 -8 -17 -15 -20 -15 -3 0 -6
7 -6 15 0 9 9 15 21 15 18 0 19 -2 5 -15z m-359 -11 c-3 -3 -12 -4 -19 -1 -8
3 -5 6 6 6 11 1 17 -2 13 -5z m-1147 -54 c0 -5 -2 -10 -4 -10 -3 0 -8 5 -11
10 -3 6 -1 10 4 10 6 0 11 -4 11 -10z m1083 -5 c-3 -9 -8 -14 -10 -11 -3 3 -2
9 2 15 9 16 15 13 8 -4z m64 9 c-3 -3 -12 -4 -19 -1 -8 3 -5 6 6 6 11 1 17 -2
13 -5z m-955 -46 c-7 -7 -12 -8 -12 -2 0 14 12 26 19 19 2 -3 -1 -11 -7 -17z
m838 7 c7 -8 9 -23 5 -32 -6 -16 -8 -15 -20 7 -8 14 -14 28 -15 33 0 12 17 8
30 -8z m-997 -41 c6 1 9 1 5 -1 -18 -10 -6 -23 17 -19 18 3 25 0 25 -10 0 -11
-6 -13 -21 -9 -12 4 -28 8 -35 9 -7 1 -17 6 -21 11 -4 4 -2 5 6 0 9 -5 12 -3
9 6 -3 8 -10 13 -16 12 -7 -2 -9 4 -5 13 5 15 7 15 15 1 5 -9 14 -15 21 -13z
m70 19 c-7 -2 -19 -2 -25 0 -7 3 -2 5 12 5 14 0 19 -2 13 -5z m607 -13 c0 -5
-11 -10 -25 -10 -14 0 -25 5 -25 10 0 6 11 10 25 10 14 0 25 -4 25 -10z m370
-10 c0 -11 -7 -20 -15 -20 -13 0 -13 3 -3 20 7 11 14 20 15 20 2 0 3 -9 3 -20z
m-950 5 c0 -2 -9 -9 -20 -15 -12 -6 -20 -7 -20 -1 0 5 8 12 18 14 9 3 18 5 20
6 1 0 2 -1 2 -4z m55 -5 c3 -5 1 -10 -4 -10 -6 0 -11 5 -11 10 0 6 2 10 4 10
3 0 8 -4 11 -10z m-50 -38 c-3 -3 -11 0 -18 7 -9 10 -8 11 6 5 10 -3 15 -9 12
-12z m879 3 c-4 -8 -2 -15 4 -15 6 0 12 6 15 13 2 7 8 8 13 3 5 -5 4 -11 -3
-13 -8 -3 -10 -16 -7 -36 l5 -32 -14 31 c-8 18 -20 35 -26 38 -16 10 -14 26 4
26 9 0 12 -6 9 -15z m59 -70 c-3 -9 -8 -14 -10 -11 -3 3 -2 9 2 15 9 16 15 13
8 -4z m-2 -55 c4 0 5 -9 2 -21 -5 -18 -8 -15 -19 17 -16 46 -17 58 -2 27 6
-13 14 -23 19 -23z m36 -217 c-3 -10 -5 -4 -5 12 0 17 2 24 5 18 2 -7 2 -21 0
-30z m-884 -33 c-7 -8 -22 24 -16 34 4 5 10 1 13 -10 4 -10 6 -21 3 -24z m-38
-33 c-9 -5 -20 -6 -23 -2 -4 4 -1 10 6 12 6 3 9 10 5 16 -4 7 1 6 11 -2 16
-13 16 -15 1 -24z m922 -9 c-3 -7 -5 -2 -5 12 0 14 2 19 5 13 2 -7 2 -19 0
-25z m-986 -11 c-10 -9 -11 -8 -5 6 3 10 9 15 12 12 3 -3 0 -11 -7 -18z m1519
-17 c0 -5 -5 -10 -11 -10 -5 0 -7 5 -4 10 3 6 8 10 11 10 2 0 4 -4 4 -10z
m-535 -168 c-4 -51 -9 -91 -11 -89 -3 2 -1 62 3 133 5 71 10 111 11 89 2 -22
1 -82 -3 -133z m-1671 102 c3 -8 2 -12 -4 -9 -6 3 -10 10 -10 16 0 14 7 11 14
-7z m2256 -24 c23 0 23 0 4 15 -19 14 -19 14 2 15 21 0 39 -22 27 -34 -7 -7
-83 -8 -83 -2 0 2 -3 13 -7 23 -6 17 -6 17 14 1 11 -10 30 -18 43 -18z m-2080
-20 c0 -5 -5 -10 -11 -10 -5 0 -7 5 -4 10 3 6 8 10 11 10 2 0 4 -4 4 -10z
m2025 -30 c3 -5 19 -10 36 -10 16 0 29 -4 29 -10 0 -5 -11 -10 -24 -10 -35 0
-78 18 -71 30 8 13 22 13 30 0z m38 3 c-7 -2 -19 -2 -25 0 -7 3 -2 5 12 5 14
0 19 -2 13 -5z m-792 -176 c-8 -8 -11 1 -11 30 0 64 14 87 18 29 2 -27 -2 -54
-7 -59z m415 74 c-3 -5 1 -12 10 -15 9 -4 15 -9 12 -11 -3 -3 -17 1 -33 9 -23
12 -24 15 -8 19 10 3 19 5 21 6 2 0 1 -3 -2 -8z m-1346 -51 c0 -5 -5 -10 -11
-10 -5 0 -7 5 -4 10 3 6 8 10 11 10 2 0 4 -4 4 -10z m892 -22 c-8 -8 -9 -4 -5
13 4 13 8 18 11 10 2 -7 -1 -18 -6 -23z m340 7 c3 -14 1 -25 -3 -25 -5 0 -9
11 -9 25 0 14 2 25 4 25 2 0 6 -11 8 -25z m-75 -27 c-3 -8 -6 -5 -6 6 -1 11 2
17 5 13 3 -3 4 -12 1 -19z m158 -68 c3 -5 2 -10 -4 -10 -5 0 -13 5 -16 10 -3
6 -2 10 4 10 5 0 13 -4 16 -10z m-16 -20 c10 -5 22 -17 25 -27 5 -13 0 -11
-21 7 -15 14 -30 26 -32 28 -13 7 13 0 28 -8z m-62 -32 c-3 -7 -5 -2 -5 12 0
14 2 19 5 13 2 -7 2 -19 0 -25z m67 -14 c24 -24 19 -30 -6 -8 -13 10 -25 20
-27 21 -2 2 1 3 7 3 6 0 18 -7 26 -16z m-134 -14 c0 -5 -5 -10 -11 -10 -5 0
-7 5 -4 10 3 6 8 10 11 10 2 0 4 -4 4 -10z m135 -31 c11 -17 -1 -21 -15 -4 -8
9 -8 15 -2 15 6 0 14 -5 17 -11z m-68 -61 c-3 -7 -5 -2 -5 12 0 14 2 19 5 13
2 -7 2 -19 0 -25z m83 -80 c0 -28 -2 -49 -4 -47 -8 8 -12 108 -4 103 4 -3 8
-28 8 -56z m-73 -85 c-2 -16 -4 -3 -4 27 0 30 2 43 4 28 2 -16 2 -40 0 -55z
m663 67 c0 -5 -2 -10 -4 -10 -3 0 -8 5 -11 10 -3 6 -1 10 4 10 6 0 11 -4 11
-10z m-633 -207 c-2 -16 -4 -3 -4 27 0 30 2 43 4 28 2 -16 2 -40 0 -55z m-90
-15 c-2 -13 -4 -5 -4 17 -1 22 1 32 4 23 2 -10 2 -28 0 -40z m120 -10 c-3 -7
-5 -2 -5 12 0 14 2 19 5 13 2 -7 2 -19 0 -25z m-70 -35 c-3 -10 -5 -2 -5 17 0
19 2 27 5 18 2 -10 2 -26 0 -35z m80 -5 c-3 -8 -6 -5 -6 6 -1 11 2 17 5 13 3
-3 4 -12 1 -19z m-120 -85 c-3 -10 -5 -2 -5 17 0 19 2 27 5 18 2 -10 2 -26 0
-35z m142 -3 c0 -9 -4 -8 -9 5 -5 11 -9 27 -9 35 0 9 4 8 9 -5 5 -11 9 -27 9
-35z m-2 -192 c-3 -8 -6 -5 -6 6 -1 11 2 17 5 13 3 -3 4 -12 1 -19z m-100
-106 c-2 -15 -4 -2 -4 28 0 30 2 43 4 28 2 -16 2 -40 0 -56z"/>
<path d="M4370 2860 c0 -5 5 -10 10 -10 6 0 10 5 10 10 0 6 -4 10 -10 10 -5 0
-10 -4 -10 -10z"/>
<path d="M4228 5353 c7 -3 16 -2 19 1 4 3 -2 6 -13 5 -11 0 -14 -3 -6 -6z"/>
<path d="M3830 4942 c0 -15 28 -23 36 -9 4 7 4 9 -1 5 -4 -4 -14 -3 -22 3 -8
7 -13 8 -13 1z"/>
<path d="M3909 4933 c-13 -16 -12 -17 4 -4 16 13 21 21 13 21 -2 0 -10 -8 -17
-17z"/>
<path d="M2710 4914 c0 -6 19 -28 43 -49 l42 -40 -40 45 c-22 25 -41 47 -42
49 -2 2 -3 0 -3 -5z"/>
<path d="M2590 4895 c7 -9 11 -17 9 -19 -2 -3 -33 -1 -69 4 -36 4 -73 3 -82
-1 -9 -5 -28 -9 -42 -9 -14 0 -26 -4 -26 -9 0 -5 -21 -8 -47 -7 -55 4 -76 -2
-67 -16 5 -7 1 -7 -11 -1 -13 8 -27 6 -49 -6 -17 -9 -32 -19 -34 -23 -2 -4
-10 -4 -19 -1 -12 5 -14 3 -8 -7 6 -10 4 -12 -8 -7 -11 4 -22 -1 -29 -13 -7
-11 -17 -20 -23 -20 -18 -1 -115 -140 -98 -140 4 0 2 -4 -5 -8 -7 -5 -14 -18
-16 -29 -3 -12 -12 -35 -21 -53 -9 -18 -14 -34 -11 -38 3 -3 6 1 7 9 1 8 4 3
8 -11 4 -14 4 -30 -1 -37 -5 -7 -5 -14 2 -18 6 -4 9 -1 8 5 -2 7 6 14 17 16
11 1 27 11 35 22 9 10 29 22 45 26 28 7 29 9 12 21 -20 14 -7 31 16 20 6 -4 3
1 -7 9 -11 9 -18 16 -15 17 2 0 12 2 21 4 10 2 20 -1 23 -6 9 -14 42 24 37 44
-5 18 13 24 23 7 3 -5 12 -10 18 -10 8 0 8 3 2 8 -5 4 -15 14 -22 23 -11 13
-7 15 32 14 27 -1 50 3 56 12 14 16 41 17 57 1 10 -10 15 -10 22 2 5 8 12 11
17 7 4 -5 1 -12 -7 -17 -11 -7 -8 -10 13 -15 26 -7 26 -8 10 -21 -17 -12 -16
-13 5 -14 33 0 23 -24 -11 -28 -15 -2 -25 -8 -22 -13 4 -5 -1 -9 -10 -9 -9 0
-13 -4 -10 -10 3 -5 2 -10 -3 -10 -13 0 -132 -115 -132 -128 0 -6 -12 -25 -26
-42 -15 -17 -24 -33 -21 -36 3 -4 2 -17 -3 -30 -17 -43 8 -26 58 38 81 106
124 149 182 178 72 36 141 49 215 40 72 -8 93 -16 122 -46 18 -20 23 -21 33
-9 17 20 32 19 58 -5 12 -11 33 -20 48 -20 26 0 26 1 11 18 -10 10 -17 26 -17
35 0 10 -5 14 -14 11 -10 -4 -13 0 -11 13 2 10 4 21 4 26 1 4 7 7 15 7 24 0
29 20 10 36 -18 14 -17 15 9 11 15 -2 27 -2 27 0 0 7 -23 27 -51 45 -21 14
-28 14 -50 2 -30 -17 -40 -17 -36 -2 1 7 -5 12 -13 13 -8 0 -16 9 -19 20 -2
15 0 17 10 9 21 -16 62 -16 55 1 -2 7 2 16 10 19 7 3 13 0 11 -6 -1 -6 4 -12
11 -14 7 -1 8 0 2 3 -5 2 -7 9 -4 14 7 12 -15 41 -26 34 -5 -3 -7 6 -6 20 2
13 0 22 -4 20 -4 -3 -16 5 -26 16 -10 11 -24 17 -32 14 -12 -5 -13 -3 -2 10 7
9 9 15 4 13 -5 -1 -35 8 -67 20 -69 26 -73 27 -57 7z m170 -110 c0 -5 -5 -3
-10 5 -5 8 -10 20 -10 25 0 6 5 3 10 -5 5 -8 10 -19 10 -25z m-20 -265 c0 -5
-4 -10 -10 -10 -5 0 -10 5 -10 10 0 6 5 10 10 10 6 0 10 -4 10 -10z"/>
<path d="M2814 4831 c9 -14 22 -26 31 -27 8 -1 12 2 9 8 -3 5 -8 7 -11 4 -3
-3 -14 5 -25 17 l-20 22 16 -24z"/>
<path d="M2312 4641 c2 -7 7 -12 11 -12 12 1 9 15 -3 20 -7 2 -11 -2 -8 -8z"/>
<path d="M2673 4496 c17 -13 24 -32 8 -22 -5 3 -11 0 -14 -8 -4 -9 -14 -12
-26 -9 -30 8 -67 -4 -89 -27 -11 -12 -46 -28 -78 -37 -32 -9 -71 -25 -86 -35
-14 -10 -31 -18 -37 -18 -6 0 -11 -5 -11 -10 0 -6 -6 -10 -13 -8 -19 4 -92
-57 -118 -98 -12 -20 -36 -42 -53 -50 -25 -11 -27 -13 -9 -14 16 0 20 -5 16
-20 -4 -15 0 -20 14 -20 10 0 23 4 29 10 6 6 22 6 43 0 19 -5 38 -7 42 -4 5 3
9 0 9 -6 0 -8 9 -10 24 -6 15 4 26 1 29 -7 3 -7 6 -4 6 7 1 15 4 16 16 6 12
-10 15 -9 15 5 0 15 2 16 18 4 16 -13 16 -13 0 7 -26 30 -23 34 22 34 38 0 59
-19 23 -21 -11 0 -13 -3 -5 -6 6 -2 10 -9 7 -14 -4 -5 1 -6 9 -3 9 3 15 9 14
12 -2 23 5 32 27 32 22 0 24 -3 18 -32 -3 -18 -11 -36 -16 -40 -6 -3 5 -5 24
-4 49 4 51 5 44 16 -4 6 -11 7 -17 4 -6 -4 -8 -2 -4 4 3 6 2 13 -4 17 -6 3
-10 -4 -11 -17 0 -13 -3 -17 -6 -10 -3 7 -2 24 1 37 5 21 13 25 41 25 18 0 37
-5 41 -12 5 -7 2 -9 -9 -5 -9 3 -21 -1 -29 -10 -10 -13 -10 -17 0 -20 18 -7
15 -19 -10 -44 -13 -12 -17 -19 -10 -15 12 7 61 16 109 19 11 1 19 6 16 11 -3
4 5 5 17 1 15 -5 20 -4 16 4 -6 10 6 15 27 12 4 0 7 8 7 19 0 11 -5 20 -11 20
-5 0 -7 5 -4 11 4 6 -1 17 -11 25 -18 14 -18 14 4 4 12 -6 22 -15 22 -21 0 -5
6 -4 14 3 8 7 12 16 10 20 -2 3 4 5 13 4 10 -2 25 1 33 5 8 5 32 15 53 23 44
18 47 35 9 67 -15 13 -34 33 -42 43 -14 18 -13 18 8 12 18 -6 22 -4 22 16 0
17 -10 29 -35 43 -22 11 -34 24 -31 32 3 8 -1 16 -9 19 -8 4 -15 12 -15 20 0
10 -7 13 -25 8 -16 -4 -34 0 -50 10 -30 20 -58 21 -32 2z m-263 -286 c13 -24
3 -25 -35 -6 -23 12 -24 15 -8 19 31 8 32 8 43 -13z m285 -90 c-3 -5 -14 -10
-23 -10 -15 0 -15 2 -2 10 20 13 33 13 25 0z m-55 -14 c0 -2 -7 -9 -15 -16
-13 -11 -14 -10 -9 4 5 14 24 23 24 12z"/>
<path d="M2850 4460 c0 -5 6 -10 14 -10 12 0 30 -34 27 -52 -1 -5 10 -8 24 -8
32 0 31 8 -6 48 -29 31 -59 42 -59 22z"/>
<path d="M2182 4259 c-36 -65 -37 -80 -5 -52 21 18 58 113 45 113 -4 0 -22
-28 -40 -61z"/>
<path d="M2431 4114 c0 -11 3 -14 6 -6 3 7 2 16 -1 19 -3 4 -6 -2 -5 -13z"/>
<path d="M1667 3883 c-4 -3 -7 -16 -7 -27 0 -29 42 -196 50 -196 3 0 4 30 2
66 -3 41 0 70 7 77 17 17 13 42 -12 65 -25 24 -30 26 -40 15z"/>
<path d="M2345 3110 c3 -5 8 -10 11 -10 2 0 4 5 4 10 0 6 -5 10 -11 10 -5 0
-7 -4 -4 -10z"/>
<path d="M2303 3083 c-13 -2 -23 -9 -23 -14 0 -6 -7 -17 -15 -26 -8 -8 -14
-27 -13 -42 1 -14 -2 -33 -7 -41 -11 -21 -4 -13 49 49 42 50 58 83 39 80 -5
-1 -18 -4 -30 -6z"/>
<path d="M2879 2303 c-13 -15 -12 -15 9 -4 23 12 28 21 13 21 -5 0 -15 -7 -22
-17z"/>
<path d="M3085 2170 c3 -5 8 -10 11 -10 2 0 4 5 4 10 0 6 -5 10 -11 10 -5 0
-7 -4 -4 -10z"/>
<path d="M3110 2073 c0 -7 -4 -13 -10 -13 -5 0 -10 5 -10 11 0 8 -6 7 -17 -2
-9 -8 -14 -9 -11 -4 9 14 -49 12 -63 -2 -10 -10 -8 -14 7 -19 10 -3 28 -10 39
-15 12 -6 33 -6 53 0 18 6 40 7 49 4 13 -5 15 -2 10 18 -4 13 -7 27 -7 31 0
13 -40 4 -40 -9z"/>
<path d="M3171 2053 c0 -12 -4 -30 -7 -40 -5 -14 -4 -15 5 -7 7 6 11 24 8 40
-3 21 -4 23 -6 7z"/>
<path d="M3195 1899 c4 -5 16 -9 27 -9 26 0 19 9 -11 15 -12 2 -19 0 -16 -6z"/>
<path d="M2152 1865 c-19 -48 -52 -186 -51 -214 1 -18 5 -11 11 19 5 25 21 77
35 117 25 74 30 138 5 78z"/>
<path d="M2361 1766 c-16 -19 3 -31 26 -16 15 9 14 10 -7 4 -22 -6 -23 -5 -11
10 7 9 11 16 8 16 -2 0 -10 -6 -16 -14z"/>
<path d="M2162 1740 c-1 -14 -9 -38 -17 -54 -12 -22 -13 -36 -5 -60 6 -17 17
-65 24 -106 l14 -75 -4 85 c-5 85 6 95 21 20 31 -156 103 -425 111 -417 4 4
-27 159 -42 212 -4 14 -3 17 4 10 6 -5 23 -46 37 -90 15 -44 47 -129 72 -190
25 -60 49 -121 54 -134 5 -13 12 -22 14 -19 5 5 -3 30 -50 152 -20 53 -22 66
-10 56 17 -14 106 -194 170 -345 52 -121 101 -203 60 -99 -9 22 -20 48 -25 59
-5 11 -18 43 -29 70 -11 28 -27 68 -35 90 l-17 40 26 -30 c24 -28 183 -340
199 -392 4 -13 12 -23 17 -23 5 0 8 -3 8 -7 -3 -20 2 -34 11 -28 11 7 -9 55
-23 55 -6 0 -8 3 -5 6 6 5 -5 35 -47 129 -7 17 -20 48 -29 70 l-16 40 30 -35
c17 -19 74 -122 128 -227 53 -106 100 -193 104 -193 6 0 -11 40 -88 208 -9 18
-14 38 -12 43 6 19 83 -101 151 -236 73 -142 92 -150 26 -11 -22 48 -39 90
-36 92 7 7 70 -82 118 -168 45 -81 71 -105 44 -41 -9 20 -19 41 -24 47 -10 14
-22 46 -16 46 8 0 82 -105 114 -161 34 -61 38 -84 17 -92 -16 -6 -26 1 -26 19
0 17 -41 86 -47 80 -3 -3 5 -26 17 -51 12 -25 20 -55 17 -65 -5 -19 0 -20 67
-20 60 0 76 4 91 20 18 19 17 20 -3 20 -28 0 -52 10 -52 22 0 13 57 3 77 -13
8 -7 11 -21 8 -33 -4 -14 -1 -12 10 7 19 33 20 31 -20 46 -29 11 -28 11 12 6
35 -4 44 -2 53 16 6 11 17 18 23 16 14 -4 80 110 72 123 -3 5 -12 7 -20 4 -8
-4 -18 1 -21 10 -3 9 -10 13 -15 10 -5 -3 -9 -1 -9 5 0 5 -3 18 -6 28 -5 15
-4 16 6 3 10 -13 11 -13 7 0 -3 11 -16 14 -47 12 -35 -2 -41 0 -36 13 3 9 2
13 -3 10 -14 -8 -61 16 -61 32 0 8 -6 13 -12 10 -15 -5 -109 41 -157 77 -19
14 -40 26 -47 26 -7 0 -21 11 -32 25 -11 14 -22 25 -25 25 -8 0 -51 38 -137
120 -43 41 -103 98 -134 125 -30 28 -63 65 -73 83 -10 17 -23 32 -29 32 -11 0
-41 32 -180 189 -101 114 -208 308 -264 478 -22 65 -39 112 -40 106 0 -7 -4
-13 -9 -13 -6 0 -6 11 0 29 6 16 9 44 6 63 -3 24 -4 26 -5 8z m1106 -1662 c-9
-27 -25 -15 -51 39 l-28 58 41 -43 c23 -23 40 -48 38 -54z m-4 -43 c11 -8 15
-15 9 -15 -19 0 -43 12 -43 21 0 13 12 11 34 -6z"/>
<path d="M2454 1752 c3 -5 0 -13 -6 -15 -8 -3 -6 -6 5 -6 19 -1 23 14 5 25 -6
4 -8 3 -4 -4z"/>
<path d="M2405 1710 c-11 -5 -14 -9 -7 -9 6 -1 12 -5 12 -11 0 -19 94 -110
114 -111 16 0 17 -2 6 -7 -14 -6 -14 -9 2 -24 19 -19 20 -19 20 12 0 40 -2 42
-28 36 l-26 -7 26 24 c21 20 24 26 13 36 -14 11 -27 5 -27 -13 0 -6 5 -4 11 4
7 10 9 11 7 2 -2 -8 -8 -14 -13 -14 -6 0 -16 -5 -24 -11 -12 -10 -13 -9 -6 3
15 24 14 39 -1 33 -8 -3 -11 -10 -7 -17 3 -6 0 -5 -8 3 -11 10 -11 15 -1 18 6
3 12 9 12 14 0 6 -4 7 -10 4 -5 -3 -10 -1 -10 4 0 6 -4 11 -10 11 -5 0 -7 -8
-4 -17 5 -15 3 -15 -10 2 -9 11 -14 25 -12 32 3 7 4 13 3 12 -1 0 -11 -4 -22
-9z"/>
<path d="M2488 1708 c5 -5 16 -8 23 -6 8 3 3 7 -10 11 -17 4 -21 3 -13 -5z"/>
<path d="M3660 1693 c0 -10 4 -14 8 -8 4 6 11 13 16 18 5 4 2 7 -7 7 -10 0
-17 -8 -17 -17z"/>
<path d="M3490 1686 c0 -2 8 -10 18 -17 15 -13 16 -12 3 4 -13 16 -21 21 -21
13z"/>
<path d="M3650 1648 c0 -19 2 -20 10 -8 13 19 13 30 0 30 -5 0 -10 -10 -10
-22z"/>
<path d="M2565 1650 c-3 -5 -1 -10 4 -10 6 0 11 5 11 10 0 6 -2 10 -4 10 -3 0
-8 -4 -11 -10z"/>
<path d="M3422 1600 c-17 -27 -15 -35 4 -16 8 9 14 21 12 26 -2 6 -9 1 -16
-10z"/>
<path d="M3470 1613 c0 -15 18 -35 23 -27 3 5 -1 15 -9 22 -8 7 -14 9 -14 5z"/>
<path d="M2635 1590 c-3 -6 1 -7 9 -4 18 7 21 14 7 14 -6 0 -13 -4 -16 -10z"/>
<path d="M2612 1554 c-9 -8 -25 -14 -34 -14 -25 0 -23 -20 2 -20 11 0 20 4 20
10 0 5 8 7 18 4 14 -5 15 -4 2 5 -11 8 -11 11 -2 12 26 3 31 4 36 10 12 12
-25 5 -42 -7z"/>
<path d="M3321 1527 c-13 -21 -12 -21 5 -5 10 10 16 20 13 22 -3 3 -11 -5 -18
-17z"/>
<path d="M5041 1224 c0 -11 3 -14 6 -6 3 7 2 16 -1 19 -3 4 -6 -2 -5 -13z"/>
<path d="M4691 1167 c2 -1 13 -9 24 -17 19 -14 19 -14 6 3 -7 9 -18 17 -24 17
-6 0 -8 -1 -6 -3z"/>
<path d="M4800 1125 c0 -7 81 -47 86 -43 2 3 -17 14 -41 26 -25 12 -45 20 -45
17z"/>
<path d="M4860 1126 c0 -2 7 -7 16 -10 8 -3 12 -2 9 4 -6 10 -25 14 -25 6z"/>
<path d="M4930 1056 c0 -3 9 -10 20 -16 11 -6 20 -8 20 -6 0 3 -9 10 -20 16
-11 6 -20 8 -20 6z"/>
<path d="M4980 1026 c0 -3 26 -24 58 -46 31 -22 80 -59 107 -81 59 -47 272
-189 294 -196 9 -3 -41 33 -110 79 -69 45 -163 112 -210 148 -88 69 -139 104
-139 96z"/>
<path d="M5050 1006 c0 -2 7 -7 16 -10 8 -3 12 -2 9 4 -6 10 -25 14 -25 6z"/>
<path d="M5054 938 c17 -13 57 -48 91 -79 33 -30 92 -76 130 -101 73 -47 175
-102 175 -93 0 2 -19 14 -42 26 -65 33 -218 138 -268 184 -25 23 -61 51 -80
64 l-35 22 29 -23z"/>
<path d="M5145 940 c8 -12 282 -193 325 -214 49 -24 20 -3 -117 84 -64 41
-139 89 -166 107 -26 18 -45 28 -42 23z"/>
<path d="M2451 900 c0 -8 4 -22 9 -30 12 -18 12 -2 0 25 -6 13 -9 15 -9 5z"/>
<path d="M5080 886 c0 -2 8 -10 18 -17 15 -13 16 -12 3 4 -13 16 -21 21 -21
13z"/>
<path d="M5280 886 c0 -3 9 -10 20 -16 11 -6 20 -8 20 -6 0 3 -9 10 -20 16
-11 6 -20 8 -20 6z"/>
<path d="M5050 876 c0 -2 8 -10 18 -17 15 -13 16 -12 3 4 -13 16 -21 21 -21
13z"/>
<path d="M5330 856 c0 -6 115 -80 193 -124 91 -51 66 -29 -35 32 -51 30 -108
65 -125 77 -18 11 -33 18 -33 15z"/>
<path d="M5387 849 c7 -7 15 -10 18 -7 3 3 -2 9 -12 12 -14 6 -15 5 -6 -5z"/>
<path d="M5105 830 c10 -11 20 -20 23 -20 3 0 -3 9 -13 20 -10 11 -20 20 -23
20 -3 0 3 -9 13 -20z"/>
<path d="M5421 826 c2 -2 15 -9 29 -15 24 -11 24 -11 6 3 -16 13 -49 24 -35
12z"/>
<path d="M1208 783 c7 -3 16 -2 19 1 4 3 -2 6 -13 5 -11 0 -14 -3 -6 -6z"/>
<path d="M3460 780 c0 -5 5 -10 10 -10 6 0 10 5 10 10 0 6 -4 10 -10 10 -5 0
-10 -4 -10 -10z"/>
<path d="M4787 772 c27 -20 41 -60 77 -212 15 -63 47 -196 71 -295 24 -99 48
-200 53 -225 10 -45 10 -45 11 -9 0 20 -19 114 -43 210 -108 430 -128 530 -95
479 12 -20 28 -77 49 -185 11 -49 39 -175 64 -278 25 -104 46 -198 46 -210 0
-12 5 -29 10 -37 19 -30 10 24 -41 240 -27 118 -57 247 -65 285 -40 194 -34
180 -93 219 -55 37 -83 49 -44 18z"/>
<path d="M1481 734 c0 -11 3 -14 6 -6 3 7 2 16 -1 19 -3 4 -6 -2 -5 -13z"/>
<path d="M4770 746 c0 -2 9 -32 19 -67 30 -98 127 -484 146 -579 9 -47 21 -89
27 -95 6 -7 8 -1 4 15 -3 14 -13 63 -22 110 -9 46 -29 130 -44 185 -15 55 -35
134 -44 175 -26 113 -70 260 -78 260 -5 0 -8 -2 -8 -4z"/>
<path d="M5580 736 c0 -2 7 -7 16 -10 8 -3 12 -2 9 4 -6 10 -25 14 -25 6z"/>
<path d="M5620 716 c0 -3 9 -10 20 -16 11 -6 20 -8 20 -6 0 3 -9 10 -20 16
-11 6 -20 8 -20 6z"/>
<path d="M4967 678 c3 -18 28 -141 55 -273 28 -132 57 -277 66 -322 8 -46 19
-83 22 -83 8 0 -10 108 -38 230 -41 175 -94 452 -87 458 11 12 33 -28 40 -71
8 -60 118 -611 122 -616 16 -21 6 44 -41 267 -31 143 -61 294 -67 336 -10 69
-14 78 -40 91 -38 20 -38 20 -32 -17z"/>
<path d="M5530 691 c14 -11 73 -46 132 -76 59 -30 144 -76 190 -103 46 -26
100 -55 120 -66 33 -17 98 -75 73 -65 -33 13 -165 85 -190 104 -32 24 -169 95
-182 95 -5 0 28 -20 72 -43 44 -23 96 -54 115 -69 19 -14 62 -38 95 -53 33
-14 80 -45 105 -69 25 -24 65 -56 90 -70 48 -28 33 -15 -37 34 -24 17 -43 34
-43 39 0 10 99 -51 177 -108 23 -17 45 -31 50 -31 10 0 -50 44 -144 106 -71
45 -100 74 -77 74 7 0 121 -77 169 -115 22 -17 60 -43 85 -57 25 -15 56 -38
69 -52 13 -14 28 -23 32 -20 4 2 13 -5 19 -16 6 -11 16 -20 22 -20 21 0 -37
52 -112 101 -68 44 -143 96 -269 188 -25 18 -40 28 -33 20 26 -28 10 -29 -25
-2 -21 16 -78 51 -128 78 -49 26 -148 79 -219 117 -71 38 -140 76 -155 85
l-26 15 25 -21z m535 -321 c3 -5 1 -10 -4 -10 -6 0 -11 5 -11 10 0 6 2 10 4
10 3 0 8 -4 11 -10z"/>
<path d="M4923 680 c10 -60 60 -293 82 -385 13 -55 32 -144 42 -197 10 -54 21
-98 26 -98 10 0 4 37 -48 265 -24 105 -53 240 -66 300 -12 61 -26 117 -31 125
-7 11 -8 8 -5 -10z"/>
<path d="M5460 697 c13 -14 145 -97 155 -97 5 0 -18 18 -51 39 -65 41 -113 68
-104 58z"/>
<path d="M5590 695 c0 -2 15 -12 33 -20 l32 -16 -25 20 c-24 20 -40 26 -40 16z"/>
<path d="M1087 676 c-4 -10 -7 -25 -6 -34 0 -11 4 -9 10 7 5 13 8 29 6 35 -2
5 -6 2 -10 -8z"/>
<path d="M3996 645 c-10 -25 -16 -51 -13 -58 2 -6 12 12 21 41 22 66 15 79 -8
17z"/>
<path d="M5677 679 c7 -7 15 -10 18 -7 3 3 -2 9 -12 12 -14 6 -15 5 -6 -5z"/>
<path d="M1461 654 c0 -11 3 -14 6 -6 3 7 2 16 -1 19 -3 4 -6 -2 -5 -13z"/>
<path d="M1511 654 c0 -11 3 -14 6 -6 3 7 2 16 -1 19 -3 4 -6 -2 -5 -13z"/>
<path d="M5710 666 c0 -3 9 -10 20 -16 11 -6 20 -8 20 -6 0 3 -9 10 -20 16
-11 6 -20 8 -20 6z"/>
<path d="M5081 558 c18 -110 45 -244 79 -398 11 -52 23 -110 27 -127 3 -18 10
-33 14 -33 13 0 12 6 -25 162 -37 157 -96 449 -96 479 0 10 -4 19 -8 19 -5 0
-1 -46 9 -102z"/>
<path d="M5504 624 c48 -36 134 -79 142 -71 3 3 -10 10 -28 16 -18 6 -58 30
-90 51 -70 50 -87 52 -24 4z"/>
<path d="M5660 656 c0 -2 7 -7 16 -10 8 -3 12 -2 9 4 -6 10 -25 14 -25 6z"/>
<path d="M5113 634 c3 -11 9 -39 12 -64 6 -43 111 -530 121 -559 2 -8 7 -12 9
-9 5 4 -9 74 -79 388 -19 85 -37 176 -41 203 -4 26 -12 50 -17 53 -6 4 -8 -1
-5 -12z"/>
<path d="M1026 623 c-3 -10 -12 -49 -21 -88 -8 -38 -19 -87 -24 -109 -5 -21
-6 -35 -2 -30 10 12 63 235 57 241 -2 2 -7 -4 -10 -14z"/>
<path d="M3866 607 c-20 -49 -30 -83 -21 -75 10 9 45 108 39 108 -2 0 -10 -15
-18 -33z"/>
<path d="M5700 636 c0 -3 14 -12 30 -21 17 -9 30 -13 30 -11 0 3 -13 12 -30
21 -16 9 -30 13 -30 11z"/>
<path d="M5760 636 c0 -3 9 -10 20 -16 11 -6 20 -8 20 -6 0 3 -9 10 -20 16
-11 6 -20 8 -20 6z"/>
<path d="M5476 611 c33 -32 98 -81 106 -81 6 0 -7 13 -28 28 -21 16 -45 36
-53 45 -7 9 -18 17 -24 17 -7 0 -7 -3 -1 -9z"/>
<path d="M5811 606 c10 -9 69 -36 69 -32 0 6 -55 36 -66 36 -4 0 -5 -2 -3 -4z"/>
<path d="M5630 596 c0 -2 7 -7 16 -10 8 -3 12 -2 9 4 -6 10 -25 14 -25 6z"/>
<path d="M5890 596 c0 -3 9 -10 20 -16 11 -6 20 -8 20 -6 0 3 -9 10 -20 16
-11 6 -20 8 -20 6z"/>
<path d="M2650 571 c0 -6 4 -13 10 -16 6 -3 7 1 4 9 -7 18 -14 21 -14 7z"/>
<path d="M5207 574 c-3 -3 -2 -17 3 -30 15 -39 107 -395 135 -522 3 -12 9 -22
14 -22 8 0 -82 371 -118 490 -15 50 -12 51 10 5 12 -27 19 -33 19 -20 0 17 2
18 10 5 8 -11 9 -7 4 15 -15 68 15 4 45 -95 30 -100 104 -328 123 -379 5 -13
11 -22 13 -19 3 2 -15 63 -39 134 -24 71 -60 187 -81 259 -29 98 -45 137 -66
158 -29 28 -45 36 -33 15 6 -10 4 -10 -7 0 -14 13 -23 15 -32 6z m21 -35 c-3
-8 -7 -3 -11 10 -4 17 -3 21 5 13 5 -5 8 -16 6 -23z m42 -38 c-1 -10 -6 -7
-15 9 -19 33 -18 50 0 26 8 -11 15 -27 15 -35z"/>
<path d="M895 298 c-37 -150 -70 -280 -73 -288 -3 -11 -2 -12 6 -5 17 15 150
551 140 561 -3 2 -36 -118 -73 -268z"/>
<path d="M3906 544 c-4 -14 -5 -28 -3 -31 3 -2 8 8 11 23 4 14 5 28 3 31 -3 2
-8 -8 -11 -23z"/>
<path d="M3967 564 c-4 -4 -7 -19 -6 -33 l0 -26 10 24 c10 26 8 47 -4 35z"/>
<path d="M5830 567 c0 -3 21 -18 48 -33 26 -15 58 -34 72 -42 l25 -14 -25 20
c-28 24 -120 76 -120 69z"/>
<path d="M5890 566 c0 -3 9 -10 20 -16 11 -6 20 -8 20 -6 0 3 -9 10 -20 16
-11 6 -20 8 -20 6z"/>
<path d="M5940 567 c0 -2 21 -18 48 -36 35 -25 40 -26 17 -6 -30 26 -65 49
-65 42z"/>
<path d="M5987 559 c7 -7 15 -10 18 -7 3 3 -2 9 -12 12 -14 6 -15 5 -6 -5z"/>
<path d="M5714 517 c32 -18 91 -53 131 -79 71 -46 184 -102 192 -95 2 2 -25
17 -59 32 -35 15 -83 42 -108 59 -51 36 -195 116 -207 116 -4 -1 18 -15 51
-33z"/>
<path d="M5940 537 c0 -2 46 -38 101 -78 56 -41 128 -94 161 -119 33 -25 81
-58 106 -73 26 -16 58 -39 72 -51 14 -12 43 -35 65 -51 l40 -28 -45 46 c-24
26 -48 47 -52 47 -4 0 -27 14 -51 30 -25 17 -48 30 -51 30 -4 0 -19 11 -34 25
-30 28 -19 34 17 8 18 -12 22 -12 15 -2 -5 8 -9 17 -9 21 0 3 -4 10 -9 15 -5
5 -6 3 -2 -4 13 -24 -4 -13 -114 67 -61 44 -110 78 -110 75 0 -2 34 -30 75
-61 42 -31 73 -59 71 -61 -4 -5 -68 38 -183 123 -35 25 -63 44 -63 41z m280
-177 c8 -5 11 -12 7 -16 -4 -4 -15 0 -24 9 -18 18 -8 23 17 7z"/>
<path d="M308 523 c7 -3 16 -2 19 1 4 3 -2 6 -13 5 -11 0 -14 -3 -6 -6z"/>
<path d="M5408 509 c14 -8 27 -30 36 -58 8 -25 36 -107 63 -181 28 -74 58
-165 68 -202 10 -38 22 -68 26 -68 5 0 9 1 9 3 0 12 -52 175 -75 232 -86 222
-92 245 -72 245 19 0 54 -94 173 -469 2 -8 7 -11 10 -8 4 4 -69 239 -140 444
-8 25 -21 36 -56 50 -56 23 -72 27 -42 12z"/>
<path d="M5717 474 c48 -26 99 -54 113 -64 40 -27 57 -33 32 -11 -28 24 -204
121 -221 121 -7 0 28 -21 76 -46z"/>
<path d="M5361 418 c41 -134 138 -410 145 -417 12 -11 -4 44 -83 276 -43 128
-81 233 -84 233 -4 0 6 -42 22 -92z"/>
<path d="M6100 506 c0 -2 8 -10 18 -17 15 -13 16 -12 3 4 -13 16 -21 21 -21
13z"/>
<path d="M871 413 c-12 -48 -35 -139 -51 -202 -30 -112 -35 -139 -25 -129 12
11 108 408 101 415 -2 2 -14 -35 -25 -84z"/>
<path d="M3761 484 c0 -11 3 -14 6 -6 3 7 2 16 -1 19 -3 4 -6 -2 -5 -13z"/>
<path d="M6144 485 c1 -8 8 -21 16 -28 12 -10 12 -9 2 4 -6 9 -9 18 -6 21 3 3
1 9 -4 12 -6 3 -9 -1 -8 -9z"/>
<path d="M5396 460 c3 -19 15 -60 26 -90 55 -149 117 -337 118 -352 0 -10 5
-18 10 -18 16 0 5 38 -109 360 -49 137 -53 146 -45 100z"/>
<path d="M5980 476 c0 -3 9 -10 20 -16 11 -6 20 -8 20 -6 0 3 -9 10 -20 16
-11 6 -20 8 -20 6z"/>
<path d="M3793 408 c-12 -35 -25 -72 -29 -83 l-6 -20 14 20 c18 24 59 145 50
145 -4 0 -17 -28 -29 -62z"/>
<path d="M6124 462 c8 -13 66 -56 66 -49 0 3 -17 17 -37 33 -20 15 -33 23 -29
16z"/>
<path d="M6260 460 c-9 -6 -10 -10 -3 -10 6 0 15 5 18 10 8 12 4 12 -15 0z"/>
<path d="M3896 347 c-21 -61 -41 -118 -43 -125 -3 -6 -1 -12 4 -12 10 0 22 32
68 178 36 115 14 83 -29 -41z"/>
<path d="M5580 446 c0 -9 11 -43 25 -76 13 -32 32 -98 40 -147 13 -76 34 -163
51 -212 2 -8 7 -12 10 -9 2 3 0 17 -6 32 -5 15 -21 86 -36 159 -14 73 -36 157
-49 187 -26 61 -24 74 5 44 21 -21 26 -41 71 -266 18 -87 35 -158 40 -158 4 0
1 28 -7 62 -13 52 -44 209 -71 350 -3 14 -12 28 -22 31 -9 3 -24 8 -33 12 -13
5 -18 2 -18 -9z"/>
<path d="M6290 455 c0 -2 6 -8 13 -14 10 -8 14 -7 14 2 0 8 -6 14 -14 14 -7 0
-13 -1 -13 -2z"/>
<path d="M2711 434 c0 -11 3 -14 6 -6 3 7 2 16 -1 19 -3 4 -6 -2 -5 -13z"/>
<path d="M5274 439 c3 -9 25 -90 49 -180 25 -90 51 -186 58 -213 7 -28 14 -45
16 -39 3 7 -8 57 -22 113 -15 56 -25 103 -23 105 4 5 35 -91 59 -179 7 -28 14
-45 17 -38 2 7 -17 81 -43 165 -26 83 -54 177 -63 207 -11 35 -18 48 -20 35
-4 -16 -6 -15 -18 10 -8 17 -12 23 -10 14z m60 -139 l6 -35 -14 35 c-7 20 -16
51 -20 70 l-6 35 14 -35 c7 -20 16 -51 20 -70z"/>
<path d="M5530 446 c0 -2 11 -28 25 -57 13 -30 43 -124 65 -209 23 -85 46
-161 51 -170 12 -17 14 -25 -37 173 -32 125 -85 267 -99 267 -3 0 -5 -2 -5 -4z"/>
<path d="M3670 396 c-27 -65 -24 -71 6 -13 14 27 23 51 20 54 -3 3 -15 -15
-26 -41z"/>
<path d="M3862 423 c-6 -10 -11 -22 -12 -28 -1 -5 -6 -20 -11 -33 -5 -13 -9
-29 -9 -35 1 -16 29 36 33 60 1 10 6 24 11 31 4 7 6 16 3 19 -3 2 -10 -4 -15
-14z"/>
<path d="M6190 436 c0 -2 8 -10 18 -17 15 -13 16 -12 3 4 -13 16 -21 21 -21
13z"/>
<path d="M5667 422 c7 -4 15 -35 19 -67 6 -54 58 -309 70 -344 2 -8 7 -11 10
-9 3 3 -8 64 -25 134 -16 71 -32 156 -36 188 -8 72 -20 106 -37 106 -10 0 -10
-2 -1 -8z"/>
<path d="M5752 414 c9 -11 21 -54 28 -99 14 -97 70 -315 81 -315 4 0 -3 39
-17 87 -21 76 -41 168 -59 276 -3 19 0 27 10 27 8 0 15 -2 15 -4 0 -43 90
-386 102 -386 10 0 13 -10 -23 110 -32 108 -60 249 -53 262 3 4 -19 19 -48 34
-42 21 -50 23 -36 8z"/>
<path d="M3735 410 c-3 -5 -1 -10 4 -10 6 0 11 5 11 10 0 6 -2 10 -4 10 -3 0
-8 -4 -11 -10z"/>
<path d="M2801 394 c0 -11 3 -14 6 -6 3 7 2 16 -1 19 -3 4 -6 -2 -5 -13z"/>
<path d="M5724 388 c3 -13 8 -48 11 -78 3 -30 17 -102 30 -160 32 -137 36
-150 44 -150 4 0 -6 51 -21 112 -16 62 -34 155 -40 206 -7 50 -16 92 -20 92
-5 0 -6 -10 -4 -22z"/>
<path d="M6260 408 c0 -3 17 -18 38 -34 31 -23 34 -24 17 -5 -11 13 -18 25
-17 28 2 3 0 8 -4 11 -4 4 -4 1 0 -5 9 -16 -6 -17 -22 -1 -7 7 -12 9 -12 6z"/>
<path d="M6436 398 c3 -5 10 -6 15 -3 13 9 11 12 -6 12 -8 0 -12 -4 -9 -9z"/>
<path d="M3723 375 c-3 -9 -3 -18 -1 -21 3 -3 8 4 11 16 6 23 -1 27 -10 5z"/>
<path d="M966 355 c-3 -9 -6 -22 -5 -28 0 -7 5 -1 10 12 5 13 8 26 5 28 -2 2
-6 -3 -10 -12z"/>
<path d="M5853 364 c4 -7 20 -63 37 -125 17 -63 32 -121 35 -129 3 -8 10 -36
17 -62 6 -27 16 -48 21 -48 5 0 7 8 4 18 -2 9 -23 80 -46 158 -22 77 -41 148
-41 156 0 9 -8 22 -17 29 -9 8 -14 9 -10 3z"/>
<path d="M6365 361 c-3 -5 -2 -12 3 -15 5 -3 9 1 9 9 0 17 -3 19 -12 6z"/>
<path d="M5938 340 c18 -19 50 -113 88 -260 20 -75 39 -106 28 -45 -4 22 -24
95 -46 163 -21 67 -37 126 -34 131 3 4 -6 13 -20 20 -35 16 -38 14 -16 -9z"/>
<path d="M6294 346 c1 -9 8 -22 16 -29 10 -9 11 -9 6 1 -4 6 -3 12 3 12 12 0
24 -19 28 -40 1 -8 15 -25 30 -37 15 -12 42 -34 59 -48 45 -36 52 -31 9 6 -20
18 -33 34 -30 37 3 3 13 -2 22 -10 10 -8 25 -18 33 -22 8 -4 6 0 -5 9 -11 9
-29 23 -40 33 -48 40 -60 46 -36 19 26 -29 19 -36 -12 -13 -10 8 -20 22 -21
32 -2 10 -17 28 -34 42 -23 18 -30 20 -28 8z"/>
<path d="M6401 347 c-8 -10 -7 -14 2 -14 8 0 14 6 14 14 0 7 -1 13 -2 13 -2 0
-8 -6 -14 -13z"/>
<path d="M5900 350 c0 -3 20 -69 44 -147 24 -78 47 -155 51 -172 4 -17 11 -31
17 -31 6 0 7 7 4 16 -3 9 -9 28 -12 42 -3 15 -21 73 -40 130 -19 57 -34 109
-34 116 0 12 -29 57 -30 46z"/>
<path d="M6357 329 c12 -12 24 -21 27 -18 2 2 -8 13 -22 23 l-27 19 22 -24z"/>
<path d="M172 258 c-11 -40 -19 -74 -18 -76 2 -2 15 31 29 72 14 42 22 76 18
76 -4 0 -17 -32 -29 -72z"/>
<path d="M3697 311 c-4 -17 -3 -21 5 -13 5 5 8 16 6 23 -3 8 -7 3 -11 -10z"/>
<path d="M5995 313 c13 -30 75 -237 75 -250 0 -19 20 -66 26 -60 3 3 -13 67
-36 144 -23 76 -44 148 -47 161 -3 12 -10 22 -15 22 -6 0 -7 -8 -3 -17z"/>
<path d="M6063 314 c9 -11 17 -27 17 -36 0 -8 6 -34 14 -59 8 -24 26 -83 42
-131 15 -49 31 -88 36 -88 5 0 7 6 4 13 -10 26 -64 193 -70 222 -6 26 -6 28 7
15 8 -8 31 -67 52 -130 42 -124 42 -126 50 -118 3 2 -15 62 -39 133 -40 118
-47 131 -87 164 -24 19 -36 26 -26 15z"/>
<path d="M791 304 c0 -11 3 -14 6 -6 3 7 2 16 -1 19 -3 4 -6 -2 -5 -13z"/>
<path d="M6419 308 c7 -10 10 -18 6 -18 -11 0 15 -29 35 -40 12 -6 17 -5 17 5
0 8 -4 12 -9 9 -11 -7 -39 16 -33 26 3 4 -3 14 -13 21 -15 13 -16 12 -3 -3z"/>
<path d="M931 223 c-12 -49 -30 -118 -41 -155 -10 -38 -15 -68 -10 -68 9 0 17
24 45 145 9 39 21 89 27 113 6 23 9 45 6 47 -3 3 -15 -34 -27 -82z"/>
<path d="M3820 306 c0 -1 -12 -34 -26 -72 -31 -84 -58 -165 -59 -179 -1 -5 -6
-20 -13 -32 -7 -13 -9 -23 -3 -23 11 0 10 -1 72 173 27 75 44 137 39 137 -6 0
-10 -2 -10 -4z"/>
<path d="M6046 268 c7 -24 27 -94 45 -156 18 -61 36 -112 42 -112 5 0 6 8 2
18 -11 27 -62 203 -72 246 -4 22 -13 41 -19 43 -8 3 -7 -10 2 -39z"/>
<path d="M6450 306 c0 -2 8 -10 18 -17 15 -13 16 -12 3 4 -13 16 -21 21 -21
13z"/>
<path d="M2910 292 c0 -5 6 -17 14 -27 13 -18 14 -18 9 8 -5 24 -23 39 -23 19z"/>
<path d="M3621 274 c-6 -15 -9 -29 -7 -32 3 -2 10 8 16 23 14 36 7 43 -9 9z"/>
<path d="M186 145 c-27 -75 -46 -138 -44 -141 5 -4 25 47 85 213 8 23 13 47
11 53 -2 6 -25 -50 -52 -125z"/>
<path d="M782 260 c0 -14 2 -19 5 -12 2 6 2 18 0 25 -3 6 -5 1 -5 -13z"/>
<path d="M3680 270 c0 -5 5 -10 11 -10 5 0 7 5 4 10 -3 6 -8 10 -11 10 -2 0
-4 -4 -4 -10z"/>
<path d="M3550 246 c-15 -39 -12 -46 6 -13 9 16 13 31 10 34 -3 3 -10 -6 -16
-21z"/>
<path d="M3742 250 c-6 -10 -8 -21 -3 -24 5 -3 11 4 14 16 8 29 4 32 -11 8z"/>
<path d="M1882 249 c-1 -9 -5 -32 -8 -50 -4 -28 -3 -31 6 -16 6 9 9 32 7 50
-2 17 -5 25 -5 16z"/>
<path d="M3673 228 c-2 -18 0 -20 7 -8 12 18 13 30 2 30 -4 0 -9 -10 -9 -22z"/>
<path d="M6174 199 c13 -30 34 -87 47 -126 12 -40 26 -73 30 -73 15 0 -67 224
-87 241 -8 7 -4 -11 10 -42z"/>
<path d="M2810 235 c0 -5 5 -17 10 -25 5 -8 10 -10 10 -5 0 6 -5 17 -10 25 -5
8 -10 11 -10 5z"/>
<path d="M2947 223 c10 -26 35 -64 40 -60 6 7 -29 77 -39 77 -4 0 -4 -8 -1
-17z"/>
<path d="M6220 233 c0 -5 6 -17 13 -28 8 -11 29 -62 47 -114 19 -52 35 -90 37
-84 2 5 -10 47 -27 92 -34 92 -33 91 -21 91 5 0 24 -43 42 -95 18 -52 37 -95
42 -95 5 0 6 8 2 18 -4 9 -20 52 -36 96 -22 63 -34 83 -63 102 -20 14 -36 21
-36 17z"/>
<path d="M3596 199 c-9 -18 -14 -34 -12 -37 3 -2 12 10 21 28 9 18 14 34 12
37 -3 2 -12 -10 -21 -28z"/>
<path d="M6206 208 c4 -13 20 -57 35 -98 16 -41 29 -80 29 -87 0 -6 5 -15 11
-19 8 -4 9 1 4 17 -13 46 -77 209 -82 209 -2 0 -1 -10 3 -22z"/>
<path d="M227 111 c-41 -112 -41 -111 -28 -111 11 0 74 185 69 201 -2 6 -20
-35 -41 -90z"/>
<path d="M3720 191 c0 -11 -4 -22 -9 -25 -9 -6 -37 -98 -32 -105 1 -2 -3 -7
-9 -11 -8 -5 -9 -10 -2 -14 6 -3 17 16 27 46 9 29 23 67 31 85 17 37 17 43 4
43 -5 0 -10 -9 -10 -19z"/>
<path d="M2900 197 c0 -13 42 -97 51 -103 5 -2 -2 18 -15 46 -23 50 -36 70
-36 57z"/>
<path d="M3821 128 c-13 -40 -28 -83 -34 -95 -6 -13 -7 -26 -4 -29 4 -4 10 2
13 12 4 10 20 53 35 94 31 81 33 90 21 90 -4 0 -18 -33 -31 -72z"/>
<path d="M6362 168 c20 -18 24 -33 6 -22 -8 5 -9 2 -4 -12 5 -10 17 -45 28
-77 11 -31 24 -57 28 -57 5 0 -3 27 -16 61 -14 34 -23 66 -21 73 4 10 20 -22
58 -114 l11 -25 14 25 c22 41 16 56 -38 102 -55 46 -97 75 -66 46z m103 -129
c-6 -19 -9 -20 -16 -6 -11 20 0 52 13 39 6 -6 7 -20 3 -33z"/>
<path d="M136 155 c-9 -26 -7 -32 5 -12 6 10 9 21 6 23 -2 3 -7 -2 -11 -11z"/>
<path d="M3521 154 c0 -11 3 -14 6 -6 3 7 2 16 -1 19 -3 4 -6 -2 -5 -13z"/>
<path d="M6320 166 c0 -14 53 -152 62 -161 12 -12 2 27 -17 65 -7 14 -16 40
-20 57 -5 27 -25 57 -25 39z"/>
<path d="M1871 144 c0 -11 3 -14 6 -6 3 7 2 16 -1 19 -3 4 -6 -2 -5 -13z"/>
<path d="M1612 130 c0 -14 2 -19 5 -12 2 6 2 18 0 25 -3 6 -5 1 -5 -13z"/>
<path d="M2856 137 c3 -10 9 -15 12 -12 3 3 0 11 -7 18 -10 9 -11 8 -5 -6z"/>
<path d="M1812 120 c0 -14 2 -19 5 -12 2 6 2 18 0 25 -3 6 -5 1 -5 -13z"/>
<path d="M1916 109 c-3 -19 -8 -51 -11 -72 -3 -20 -2 -37 3 -37 5 0 12 30 16
66 7 69 1 101 -8 43z"/>
<path d="M1862 90 c0 -19 2 -27 5 -17 2 9 2 25 0 35 -3 9 -5 1 -5 -18z"/>
<path d="M3560 100 c-6 -11 -8 -20 -6 -20 3 0 10 9 16 20 6 11 8 20 6 20 -3 0
-10 -9 -16 -20z"/>
<path d="M270 75 c-16 -41 -23 -75 -16 -75 7 0 26 45 32 78 6 30 -4 28 -16 -3z"/>
<path d="M3102 45 c12 -25 28 -45 35 -45 7 0 0 18 -18 45 -17 25 -32 45 -35
45 -2 0 6 -20 18 -45z"/>
<path d="M3611 63 c-10 -26 -10 -27 4 -9 8 11 15 23 15 28 0 15 -7 8 -19 -19z"/>
<path d="M775 40 c-4 -17 -5 -34 -2 -36 2 -3 7 10 11 27 8 42 0 50 -9 9z"/>
<path d="M941 44 c0 -11 3 -14 6 -6 3 7 2 16 -1 19 -3 4 -6 -2 -5 -13z"/>
<path d="M3036 43 c4 -12 12 -28 20 -34 20 -17 17 2 -6 31 -18 24 -19 24 -14
3z"/>
<path d="M3476 43 c-6 -14 -5 -15 5 -6 7 7 10 15 7 18 -3 3 -9 -2 -12 -12z"/>
<path d="M1592 20 c0 -14 2 -19 5 -12 2 6 2 18 0 25 -3 6 -5 1 -5 -13z"/>
<path d="M1852 20 c0 -14 2 -19 5 -12 2 6 2 18 0 25 -3 6 -5 1 -5 -13z"/>
</g>
</svg>
